<?xml version="1.0" encoding="utf-8"?>
<svg class="ionicon" viewBox="0 0 512 512" xmlns="http://www.w3.org/2000/svg">
  <title>Logo Facebook</title>
  <path d="M480 257.35c0-123.7-100.3-224-224-224s-224 100.3-224 224c0 111.8 81.9 204.47 189 221.29V322.12h-56.89v-64.77H221V208c0-56.13 33.45-87.16 84.61-87.16 24.51 0 50.15 4.38 50.15 4.38v55.13H327.5c-27.81 0-36.51 17.26-36.51 35v42h62.12l-9.92 64.77H291v156.54c107.1-16.81 189-109.48 189-221.31z" fill-rule="evenodd" style="paint-order: fill; stroke-width: 0px; fill: rgb(248, 3, 3); visibility: hidden;"/>
  <path style="fill: rgb(255, 255, 255);" d="M 355.236 125.843 C 333.474 114.64 257.717 115.327 245.933 145.258 C 213.419 158.112 215.134 260.527 220.764 258.876 C 226.394 257.225 164.674 257.438 164.674 257.438 L 164.674 321.438 L 220.045 321.438 L 220.045 478.202 L 291.236 479.64 L 292.674 323.596 L 343.011 324.315 L 353.079 258.157 L 290.517 257.438 L 291.955 211.416 C 289.807 198.6 302.923 180.045 321.438 181.213 L 355.236 181.213 L 355.236 125.843 Z"/>
  <path style="fill: rgb(255, 255, 255);" d="M 240.029 148.793 L 254.717 133.599 L 243.828 153.099 L 240.029 148.793 Z"/>
</svg>