<svg width="382" height="370" viewBox="0 0 382 370" fill="none" xmlns="http://www.w3.org/2000/svg">
<g clip-path="url(#clip0_146_197)">
<path d="M348.512 369.006V331.963C348.512 331.963 362.948 358.225 348.512 369.006Z" fill="#F1F1F1"/>
<path d="M349.404 368.999L322.116 343.948C322.116 343.948 351.225 351.074 349.404 368.999Z" fill="#F1F1F1"/>
<path d="M253.158 163.445L108.354 248.078C107.847 248.374 107.244 248.456 106.677 248.307C106.109 248.158 105.624 247.791 105.327 247.285L12.2087 87.9617C11.9132 87.4549 11.8309 86.8516 11.9797 86.2841C12.1285 85.7167 12.4963 85.2314 13.0025 84.9348L157.807 0.30192C158.314 0.0064822 158.917 -0.07586 159.484 0.0729574C160.052 0.221775 160.537 0.5896 160.834 1.09574L253.952 160.419C254.248 160.925 254.33 161.529 254.181 162.096C254.032 162.664 253.664 163.149 253.158 163.445Z" fill="white"/>
<path d="M253.158 163.445L108.354 248.078C107.847 248.374 107.244 248.456 106.677 248.307C106.109 248.158 105.624 247.791 105.327 247.285L12.2087 87.9617C11.9132 87.4549 11.8309 86.8516 11.9797 86.2841C12.1285 85.7167 12.4963 85.2314 13.0025 84.9348L157.807 0.30192C158.314 0.0064822 158.917 -0.07586 159.484 0.0729574C160.052 0.221775 160.537 0.5896 160.834 1.09574L253.952 160.419C254.248 160.925 254.33 161.529 254.181 162.096C254.032 162.664 253.664 163.149 253.158 163.445ZM13.4491 85.6989C13.1454 85.8769 12.9247 86.1681 12.8354 86.5085C12.7461 86.849 12.7955 87.211 12.9728 87.5151L106.091 246.838C106.269 247.142 106.56 247.362 106.901 247.452C107.241 247.541 107.603 247.491 107.907 247.314L252.712 162.681C253.015 162.503 253.236 162.212 253.325 161.872C253.415 161.531 253.365 161.169 253.188 160.865L160.069 1.54233C159.892 1.23863 159.6 1.01792 159.26 0.928627C158.919 0.839335 158.557 0.88875 158.253 1.06603L13.4491 85.6989Z" fill="#3F3D56"/>
<path d="M106.53 101.565L70.6154 122.556C70.1086 122.852 69.5053 122.934 68.9379 122.785C68.3704 122.636 67.8852 122.269 67.5886 121.762L46.5978 85.8479C46.3024 85.3411 46.22 84.7377 46.3689 84.1703C46.5177 83.6028 46.8855 83.1176 47.3916 82.821L83.3061 61.8302C83.813 61.5348 84.4163 61.4525 84.9837 61.6013C85.5512 61.7501 86.0364 62.1179 86.333 62.6241L107.324 98.5386C107.619 99.0454 107.702 99.6487 107.553 100.216C107.404 100.784 107.036 101.269 106.53 101.565V101.565ZM47.8383 83.5851C47.5346 83.7631 47.3138 84.0542 47.2246 84.3947C47.1353 84.7352 47.1847 85.0972 47.362 85.4013L68.3527 121.316C68.5307 121.619 68.8218 121.84 69.1623 121.929C69.5028 122.019 69.8648 121.969 70.1688 121.792L106.083 100.801C106.387 100.623 106.608 100.332 106.697 99.9917C106.786 99.6513 106.737 99.2893 106.56 98.9852L85.5689 63.0707C85.3909 62.767 85.0998 62.5463 84.7593 62.457C84.4188 62.3677 84.0568 62.4171 83.7528 62.5944L47.8383 83.5851Z" fill="#F2F2F2"/>
<path d="M98.7821 111.988L62.8676 132.979C62.4114 133.245 61.8685 133.319 61.3578 133.185C60.8471 133.051 60.4103 132.72 60.1434 132.265L39.1526 96.35C38.8867 95.8939 38.8126 95.3509 38.9466 94.8402C39.0805 94.3295 39.4115 93.8927 39.8671 93.6258L75.7816 72.6351C76.2377 72.3692 76.7807 72.2951 77.2914 72.429C77.8021 72.5629 78.2388 72.894 78.5058 73.3495L99.4965 109.264C99.7624 109.72 99.8365 110.263 99.7026 110.774C99.5687 111.285 99.2376 111.721 98.7821 111.988V111.988Z" fill="#1389BF"/>
<path d="M185.468 84.9022L73.1394 150.554C72.6834 150.821 72.1402 150.895 71.6293 150.761C71.1184 150.627 70.6817 150.296 70.4152 149.84C70.1487 149.384 70.0742 148.84 70.2082 148.33C70.3422 147.819 70.6736 147.382 71.1296 147.115L183.458 81.4635C183.684 81.3316 183.933 81.2454 184.192 81.2099C184.452 81.1743 184.715 81.1902 184.968 81.2565C185.221 81.3229 185.458 81.4384 185.667 81.5965C185.875 81.7546 186.05 81.9522 186.182 82.178C186.314 82.4038 186.4 82.6533 186.436 82.9124C186.471 83.1715 186.455 83.4351 186.389 83.688C186.323 83.941 186.207 84.1784 186.049 84.3867C185.891 84.5951 185.694 84.7702 185.468 84.9022V84.9022Z" fill="#CCCCCC"/>
<path d="M165.263 112.601L80.0617 162.399C79.836 162.531 79.5864 162.617 79.3273 162.652C79.0682 162.688 78.8047 162.672 78.5517 162.606C78.0408 162.472 77.6041 162.14 77.3376 161.684C77.071 161.228 76.9966 160.685 77.1306 160.174C77.2646 159.663 77.596 159.226 78.052 158.96L163.253 109.163C163.479 109.031 163.729 108.945 163.988 108.909C164.247 108.874 164.511 108.889 164.763 108.956C165.016 109.022 165.254 109.138 165.462 109.296C165.67 109.454 165.846 109.651 165.978 109.877C166.11 110.103 166.196 110.353 166.231 110.612C166.267 110.871 166.251 111.134 166.185 111.387C166.118 111.64 166.003 111.878 165.845 112.086C165.687 112.294 165.489 112.469 165.263 112.601V112.601Z" fill="#CCCCCC"/>
<path d="M159.629 41.5696L109.96 70.5994C109.504 70.8659 108.961 70.9404 108.45 70.8064C107.939 70.6724 107.502 70.341 107.236 69.885C106.969 69.429 106.895 68.8858 107.029 68.3749C107.163 67.864 107.494 67.4273 107.95 67.1608L157.619 38.131C158.075 37.8645 158.618 37.7901 159.129 37.924C159.382 37.9904 159.619 38.1059 159.828 38.264C160.036 38.4221 160.211 38.6197 160.343 38.8454C160.475 39.0712 160.561 39.3208 160.597 39.5799C160.632 39.839 160.616 40.1025 160.55 40.3555C160.484 40.6085 160.368 40.8459 160.21 41.0542C160.052 41.2625 159.854 41.4377 159.629 41.5696Z" fill="#CCCCCC"/>
<path d="M154.156 60.6585L116.883 82.4434C116.657 82.5754 116.407 82.6616 116.148 82.6971C115.889 82.7326 115.625 82.7167 115.372 82.6504C115.12 82.5841 114.882 82.4685 114.674 82.3104C114.465 82.1523 114.29 81.9548 114.158 81.729C114.026 81.5032 113.94 81.2536 113.905 80.9945C113.869 80.7354 113.885 80.4719 113.951 80.2189C114.018 79.966 114.133 79.7285 114.291 79.5202C114.449 79.3119 114.647 79.1368 114.873 79.0048L152.146 57.2199C152.602 56.9534 153.145 56.8789 153.656 57.0129C154.167 57.1469 154.604 57.4783 154.87 57.9343C155.137 58.3903 155.211 58.9335 155.077 59.4444C154.943 59.9553 154.612 60.392 154.156 60.6585Z" fill="#CCCCCC"/>
<path d="M199.313 108.591L86.9846 174.243C86.5286 174.509 85.9854 174.584 85.4745 174.45C84.9637 174.316 84.5269 173.984 84.2604 173.528C83.9939 173.072 83.9194 172.529 84.0534 172.018C84.1874 171.507 84.5189 171.07 84.9748 170.804L197.303 105.152C197.759 104.886 198.302 104.811 198.813 104.945C199.324 105.079 199.761 105.41 200.027 105.866C200.294 106.322 200.368 106.866 200.234 107.377C200.1 107.887 199.769 108.324 199.313 108.591V108.591Z" fill="#CCCCCC"/>
<path d="M179.108 136.289L93.907 186.087C93.6812 186.219 93.4316 186.305 93.1725 186.34C92.9134 186.376 92.6499 186.36 92.3969 186.294C92.1439 186.227 91.9065 186.112 91.6982 185.954C91.4899 185.795 91.3147 185.598 91.1828 185.372C91.0508 185.146 90.9646 184.897 90.9291 184.638C90.8936 184.379 90.9094 184.115 90.9758 183.862C91.0421 183.609 91.1577 183.372 91.3158 183.163C91.4738 182.955 91.6714 182.78 91.8972 182.648L177.099 132.851C177.324 132.719 177.574 132.633 177.833 132.597C178.092 132.562 178.356 132.577 178.609 132.644C178.862 132.71 179.099 132.826 179.307 132.984C179.516 133.142 179.691 133.339 179.823 133.565C179.955 133.791 180.041 134.041 180.076 134.3C180.112 134.559 180.096 134.822 180.03 135.075C179.963 135.328 179.848 135.566 179.69 135.774C179.532 135.982 179.334 136.157 179.108 136.289V136.289Z" fill="#CCCCCC"/>
<path d="M213.158 132.279L100.829 197.931C100.604 198.063 100.354 198.149 100.095 198.184C99.8358 198.22 99.5722 198.204 99.3193 198.138C99.0663 198.071 98.8289 197.956 98.6206 197.798C98.4122 197.639 98.2371 197.442 98.1051 197.216C97.9732 196.99 97.887 196.741 97.8515 196.482C97.8159 196.223 97.8318 195.959 97.8981 195.706C97.9645 195.453 98.08 195.216 98.2381 195.007C98.3962 194.799 98.5938 194.624 98.8196 194.492L211.148 128.84C211.374 128.708 211.623 128.622 211.882 128.586C212.141 128.551 212.405 128.567 212.658 128.633C212.911 128.699 213.148 128.815 213.357 128.973C213.565 129.131 213.74 129.329 213.872 129.554C214.004 129.78 214.09 130.03 214.126 130.289C214.161 130.548 214.145 130.812 214.079 131.064C214.013 131.317 213.897 131.555 213.739 131.763C213.581 131.972 213.383 132.147 213.158 132.279V132.279Z" fill="#CCCCCC"/>
<path d="M220.08 144.123L107.752 209.775C107.526 209.907 107.276 209.993 107.017 210.028C106.758 210.064 106.495 210.048 106.242 209.982C105.989 209.915 105.751 209.8 105.543 209.642C105.335 209.484 105.159 209.286 105.027 209.06C104.896 208.835 104.809 208.585 104.774 208.326C104.738 208.067 104.754 207.803 104.821 207.55C104.887 207.297 105.002 207.06 105.16 206.852C105.319 206.643 105.516 206.468 105.742 206.336L218.07 140.684C218.296 140.552 218.546 140.466 218.805 140.431C219.064 140.395 219.327 140.411 219.58 140.477C219.833 140.544 220.071 140.659 220.279 140.817C220.487 140.975 220.662 141.173 220.794 141.399C220.926 141.624 221.013 141.874 221.048 142.133C221.084 142.392 221.068 142.656 221.001 142.909C220.935 143.162 220.82 143.399 220.661 143.607C220.503 143.816 220.306 143.991 220.08 144.123V144.123Z" fill="#CCCCCC"/>
<path d="M183.756 190.231C185.316 188.393 186.721 186.428 187.955 184.357C189.062 182.489 190.148 180.491 190.392 178.3C190.517 177.367 190.42 176.417 190.108 175.529C189.797 174.64 189.281 173.838 188.601 173.186C187.944 172.581 187.111 172.2 186.223 172.099C185.335 171.998 184.438 172.182 183.661 172.625C182.876 173.076 182.227 173.731 181.783 174.52C181.339 175.31 181.117 176.205 181.14 177.111C181.204 178.108 181.492 179.077 181.983 179.947C182.474 180.818 183.155 181.566 183.975 182.136C187.295 184.541 192.48 184.416 196.019 182.585C200.005 180.523 202.065 175.129 198.933 171.436C198.282 170.668 197.198 171.526 197.361 172.355C197.568 173.474 198.194 174.472 199.112 175.145C200.03 175.818 201.17 176.114 202.3 175.975C203.429 175.835 204.463 175.27 205.19 174.394C205.916 173.518 206.281 172.397 206.209 171.261L204.801 172.084C206.527 172.849 208.424 173.145 210.301 172.944C212.178 172.742 213.968 172.05 215.493 170.937C216.247 170.389 216.92 169.738 217.493 169.004C218.183 168.105 219.34 167.524 220.277 166.876L227.032 162.209C228.025 161.523 227.08 159.887 226.079 160.579L219.962 164.806C218.942 165.51 217.916 166.206 216.903 166.919C216.179 167.429 215.733 168.252 215.074 168.858C213.826 169.98 212.285 170.724 210.631 171.004C208.976 171.284 207.276 171.088 205.728 170.439C205.584 170.361 205.422 170.322 205.259 170.325C205.095 170.328 204.935 170.373 204.793 170.455C204.652 170.538 204.534 170.655 204.452 170.796C204.369 170.938 204.324 171.098 204.32 171.261C204.395 171.939 204.199 172.619 203.774 173.153C203.35 173.686 202.732 174.031 202.055 174.111C201.378 174.191 200.696 174.001 200.159 173.581C199.622 173.161 199.272 172.546 199.186 171.869L197.614 172.788C199.634 175.17 198.289 178.824 195.962 180.423C193.359 182.21 189.513 182.52 186.58 181.409C185.86 181.162 185.199 180.768 184.638 180.254C184.077 179.739 183.629 179.115 183.32 178.419C183.034 177.79 182.953 177.088 183.087 176.411C183.221 175.733 183.565 175.115 184.069 174.643C184.506 174.212 185.093 173.967 185.707 173.96C186.321 173.954 186.914 174.186 187.36 174.608C187.846 175.104 188.202 175.712 188.398 176.378C188.593 177.044 188.622 177.748 188.482 178.428C188.179 180.32 187.133 182.064 186.16 183.68C185.05 185.521 183.793 187.271 182.403 188.912C181.624 189.834 182.968 191.162 183.756 190.231L183.756 190.231Z" fill="#1389BF"/>
<path d="M200.521 235.129C200.683 235.297 200.833 235.477 200.967 235.668L221.884 235.156L224.324 230.697L231.535 233.5L227.982 241.814C227.695 242.485 227.198 243.046 226.566 243.411C225.933 243.776 225.199 243.926 224.474 243.838L200.842 240.983C200.284 241.689 199.525 242.208 198.665 242.472C197.805 242.736 196.886 242.732 196.028 242.46C195.171 242.188 194.417 241.662 193.866 240.951C193.315 240.24 192.993 239.379 192.944 238.481C192.895 237.583 193.12 236.691 193.59 235.924C194.06 235.157 194.752 234.552 195.575 234.188C196.397 233.824 197.311 233.719 198.194 233.887C199.078 234.056 199.889 234.489 200.521 235.129V235.129Z" fill="#FFB7B7"/>
<path d="M268.707 362.161H261.83L258.558 335.632L268.708 335.633L268.707 362.161Z" fill="#FFB7B7"/>
<path d="M270.461 368.828L248.285 368.827V368.547C248.285 366.257 249.194 364.062 250.813 362.443C252.432 360.825 254.627 359.915 256.916 359.915H256.917L270.462 359.916L270.461 368.828Z" fill="#2F2E41"/>
<path d="M206.256 362.008L199.931 359.306L207.343 333.625L216.678 337.613L206.256 362.008Z" fill="#FFB7B7"/>
<path d="M205.249 368.828L184.856 360.115L184.966 359.857C185.866 357.752 187.564 356.091 189.689 355.238C191.813 354.385 194.189 354.411 196.295 355.31L196.295 355.311L208.751 360.632L205.249 368.828Z" fill="#2F2E41"/>
<path d="M235.277 240.876L234.779 248.936L249.317 250.491L264.529 252.119L260.051 239.881L235.277 240.876Z" fill="#FFB7B7"/>
<path d="M234.322 249.039L228.674 209.668L238.463 206.46L241.338 202.517L255.329 203.345L257.383 207.946L264.844 211.471L263.697 232.763L264.534 250.575L234.322 249.039Z" fill="#2F2E41"/>
<path d="M230.767 238.489L220.811 234.505L220.853 234.328C220.896 234.149 225.133 216.44 225.696 213.594C226.282 210.63 228.424 209.81 228.515 209.776L228.581 209.752L232.522 210.951L234.252 224.549L230.767 238.489Z" fill="#2F2E41"/>
<path d="M211.378 357.346L198.124 354.627L219.308 296.173L226.558 276.235C226.558 276.235 231.157 260.249 233.234 254.062L234.488 245.762L264.168 249.047C264.168 249.047 272.458 261.221 269.939 281.064L271.078 355.646L257.824 356.326L246.722 281.106L227.238 322.341C227.238 322.341 221.096 339.938 216.702 343.752L211.378 357.346Z" fill="#2F2E41"/>
<path d="M252.265 251.815C252.499 251.81 252.732 251.822 252.964 251.854L266.81 236.167L265.199 231.346L272.158 227.964L275.838 236.222C276.136 236.889 276.209 237.635 276.046 238.347C275.884 239.059 275.495 239.699 274.938 240.171L256.776 255.56C256.915 256.449 256.779 257.358 256.388 258.168C255.997 258.978 255.369 259.649 254.587 260.093C253.804 260.537 252.906 260.733 252.01 260.653C251.114 260.574 250.264 260.224 249.572 259.649C248.88 259.075 248.379 258.303 248.136 257.438C247.893 256.572 247.92 255.652 248.212 254.802C248.505 253.951 249.049 253.21 249.773 252.677C250.497 252.143 251.367 251.843 252.265 251.815V251.815Z" fill="#FFB7B7"/>
<path d="M265.705 237.694L259.929 224.107L262.181 214.644L264.609 211.577C264.787 211.501 264.978 211.463 265.172 211.464C265.365 211.466 265.556 211.508 265.732 211.587C266.627 211.948 267.39 213.052 267.998 214.87L273.411 230.288L265.705 237.694Z" fill="#2F2E41"/>
<path d="M235.738 197.482V187.239C235.738 183.599 237.184 180.108 239.758 177.534C242.332 174.96 245.823 173.514 249.463 173.514C253.104 173.514 256.595 174.96 259.169 177.534C261.743 180.108 263.189 183.599 263.189 187.239V197.482C263.188 197.971 262.994 198.44 262.648 198.785C262.303 199.131 261.834 199.325 261.345 199.326H237.582C237.093 199.325 236.624 199.131 236.278 198.785C235.933 198.44 235.738 197.971 235.738 197.482V197.482Z" fill="#2F2E41"/>
<path d="M246.643 199.087C252.2 199.087 256.706 194.582 256.706 189.024C256.706 183.466 252.2 178.961 246.643 178.961C241.085 178.961 236.58 183.466 236.58 189.024C236.58 194.582 241.085 199.087 246.643 199.087Z" fill="#FFB7B7"/>
<path d="M232.491 188.059C232.494 185.18 233.639 182.42 235.674 180.385C237.71 178.349 240.47 177.204 243.348 177.201H245.397C248.276 177.204 251.035 178.349 253.071 180.385C255.106 182.42 256.251 185.18 256.254 188.059V188.264H251.925L250.448 184.129L250.153 188.264H247.916L247.171 186.177L247.022 188.264H232.491L232.491 188.059Z" fill="#2F2E41"/>
<path d="M245.653 200.478C245.449 200.202 245.328 199.875 245.302 199.534C245.277 199.193 245.348 198.851 245.508 198.549C247.679 194.42 250.719 186.79 246.684 182.085L246.394 181.747H258.107V199.332L247.467 201.209C247.359 201.228 247.25 201.238 247.141 201.238C246.85 201.238 246.564 201.169 246.305 201.037C246.046 200.905 245.823 200.713 245.653 200.478V200.478Z" fill="#2F2E41"/>
<path d="M109.021 356.366L115.236 358.587L126.762 335.67L117.588 332.392L109.021 356.366Z" fill="#9F616A"/>
<path d="M105.282 361.825L108.16 353.77L120.401 358.145C122.469 358.886 124.157 360.418 125.097 362.403C126.037 364.388 126.151 366.665 125.414 368.734L125.324 368.987L105.282 361.825Z" fill="#2F2E41"/>
<path d="M149.439 362.514L156.04 362.513L159.18 337.054L149.438 337.054L149.439 362.514Z" fill="#9F616A"/>
<path d="M147.755 360.359L160.754 360.358H160.754C161.842 360.358 162.919 360.573 163.925 360.989C164.93 361.405 165.843 362.015 166.612 362.785C167.381 363.554 167.992 364.467 168.408 365.472C168.824 366.477 169.039 367.554 169.039 368.642V368.912L147.755 368.912L147.755 360.359Z" fill="#2F2E41"/>
<path d="M134.396 199.859L137.267 194.187C137.267 194.187 147.961 196.866 148.933 203.064L134.396 199.859Z" fill="#F1F1F1"/>
<path d="M122.551 264.717L130.358 308.28L109.629 344.938L122.013 349.783L143.01 314.249L145.702 304.558L147.317 355.167L158.485 354.828L163.606 307.571L155.393 263.64L122.551 264.717Z" fill="#2F2E41"/>
<path d="M137.37 275.015C125.902 275.015 118.62 272.822 118.457 272.787L118.193 272.731L124.166 245.035L124.435 219.489C124.435 208.663 131.56 200.682 132.549 199.945C132.716 199.288 133.024 198.675 133.451 198.149C133.879 197.624 134.417 197.197 135.026 196.901C137.403 195.822 140.307 197.116 140.429 197.172L149.146 200.44L149.187 200.561C149.292 200.871 160.774 238.564 160.774 238.564C160.774 238.564 160.079 271.497 159.837 272.576C159.837 272.576 143.742 275.015 137.37 275.015Z" fill="#3F3D56"/>
<path d="M146.183 192.4C152.689 192.4 157.964 187.125 157.964 180.619C157.964 174.112 152.689 168.837 146.183 168.837C139.676 168.837 134.401 174.112 134.401 180.619C134.401 187.125 139.676 192.4 146.183 192.4Z" fill="#9F616A"/>
<path opacity="0.2" d="M133.046 221.578L153.658 250.336L156.702 236.906L133.046 221.578Z" fill="black"/>
<path d="M197.669 241.146C197.089 241.604 196.416 241.93 195.697 242.1C194.978 242.271 194.23 242.281 193.506 242.131C192.782 241.981 192.1 241.674 191.508 241.232C190.916 240.79 190.427 240.223 190.078 239.572L172.336 242.412L176.18 233.903L192.438 232.511C193.571 231.996 194.854 231.914 196.043 232.282C197.231 232.649 198.244 233.44 198.889 234.505C199.534 235.569 199.766 236.833 199.541 238.057C199.316 239.281 198.65 240.38 197.669 241.146H197.669Z" fill="#9F616A"/>
<path d="M177.093 233.419L183.468 232.793L185.235 241.686L177.213 241.828L177.093 233.419Z" fill="#F1F1F1"/>
<path d="M182.319 244.784L151.099 242.004L135.334 216.933L135.286 216.712C134.838 214.664 135.152 212.523 136.167 210.689C137.183 208.855 138.831 207.453 140.804 206.746C142.777 206.038 144.941 206.072 146.89 206.843C148.84 207.613 150.442 209.067 151.399 210.933L160.653 228.983L179.329 231.806L182.319 244.784Z" fill="#3F3D56"/>
<path d="M136.147 190.848L145.926 191.199C146.522 191.22 148.14 184.787 148.352 183.453C148.519 182.584 148.997 181.806 149.696 181.264C150.395 180.721 151.268 180.452 152.151 180.506C152.883 180.576 154.729 179.208 156.634 177.589C160.25 174.514 160.062 168.74 156.089 166.142C155.981 166.071 155.874 166.007 155.77 165.948C153.264 164.545 150.332 164.074 147.46 164.038C144.857 164.006 142.18 164.333 139.887 165.566C135.775 167.774 133.587 172.602 133.395 177.265C133.203 181.928 134.698 186.488 136.394 190.836" fill="#2F2E41"/>
<path d="M381.284 369.374H0.512064C0.376256 369.374 0.24601 369.32 0.14998 369.224C0.0539491 369.128 0 368.998 0 368.862C0 368.726 0.0539491 368.596 0.14998 368.5C0.24601 368.404 0.376256 368.35 0.512064 368.35H381.488C381.624 368.35 381.754 368.404 381.85 368.5C381.946 368.596 382 368.726 382 368.862C382 369.145 381.567 369.374 381.284 369.374Z" fill="#CBCBCB"/>
</g>
<defs>
<clipPath id="clip0_146_197">
<rect width="382" height="369.374" fill="white"/>
</clipPath>
</defs>
</svg>
