<svg width="680" height="588" viewBox="0 0 680 588" fill="none" xmlns="http://www.w3.org/2000/svg">
<g clip-path="url(#clip0_147_1028)">
<path d="M163.16 253.256C174.938 250.846 182.533 239.343 180.123 227.565C177.713 215.786 166.21 208.192 154.432 210.602C142.653 213.012 135.059 224.514 137.469 236.293C139.879 248.071 151.381 255.666 163.16 253.256Z" fill="#FFB6B6"/>
<path d="M157.19 279.505C157.19 279.505 146.569 271.951 136.752 283.189C126.936 294.428 127.756 340.923 127.663 348.421C127.634 350.769 131.025 355.836 135.696 361.688C137.793 364.315 140.148 367.1 142.568 369.869C143.968 371.472 142.762 374.807 144.168 376.365C145.566 377.914 149.578 377.685 150.908 379.123C157.221 385.946 162.35 391.14 162.35 391.14L182.904 391.393C183.136 376.114 172.672 362.476 159.23 349.295L157.19 279.505Z" fill="#3D7DBD"/>
<path d="M136.473 212.981C134.527 214.386 132.48 215.833 130.105 216.181C127.731 216.529 124.951 215.381 124.294 213.073C123.49 210.251 126.039 207.681 128.329 205.847L135.592 200.031C136.922 198.852 138.424 197.881 140.045 197.152C140.86 196.794 141.744 196.623 142.634 196.653C143.523 196.682 144.394 196.912 145.183 197.324C145.963 197.851 146.596 198.569 147.021 199.41C147.445 200.251 147.647 201.186 147.608 202.127C147.504 204.013 146.882 205.834 145.809 207.389C144.461 209.491 142.701 211.298 140.636 212.701C138.571 214.105 136.244 215.076 133.794 215.557" fill="#2F2E41"/>
<path d="M525.218 46.5485C524.454 46.0395 523.682 45.5568 522.919 45.0653C500.848 30.9499 477.192 19.4827 452.439 10.9006L446.7 90.0771H410.315V-0.657283C408.024 -1.13118 405.716 -1.57876 403.408 -2V90.0771H360.169C336.365 90.0771 313.537 80.6212 296.705 63.7895C279.873 46.9579 270.417 24.1293 270.417 0.325718V0.325631C268.101 0.825859 265.801 1.36119 263.502 1.93163V90.0771H228.284L222.817 14.5777C197.379 24.3333 173.23 37.1624 150.907 52.7794C150.521 53.0427 150.134 53.3147 149.757 53.578C147.818 54.9383 145.904 56.3249 144 57.7291V359.788H247.793L245.959 334.382L235.866 194.888H439.108L429.016 334.382L427.182 359.788H529.825V49.6025C528.298 48.567 526.762 47.5489 525.218 46.5485ZM263.502 171.851H234.199L228.784 96.9925H263.502V171.851ZM403.408 171.851H354.192V170.368C354.192 169.655 354.052 168.949 353.779 168.291C353.506 167.632 353.105 167.034 352.601 166.53C352.096 166.026 351.497 165.627 350.838 165.355C350.179 165.083 349.473 164.943 348.76 164.945H327.364C326.652 164.944 325.947 165.084 325.289 165.357C324.63 165.629 324.032 166.029 323.529 166.532C323.025 167.036 322.626 167.634 322.353 168.292C322.081 168.95 321.941 169.656 321.941 170.368V171.851H270.417V96.9925H403.408V171.851ZM410.315 171.851V96.9925H446.199L440.785 171.851H410.315Z" fill="#F2F2F2"/>
<path d="M649.2 548.978L649.886 533.553C657.037 529.73 665.013 527.711 673.122 527.671C661.962 536.795 663.357 554.383 655.79 566.653C653.401 570.462 650.186 573.684 646.382 576.081C642.578 578.478 638.284 579.988 633.817 580.5L624.478 586.218C623.196 579.074 623.479 571.737 625.306 564.713C627.133 557.689 630.461 551.144 635.061 545.53C637.673 542.406 640.668 539.623 643.975 537.247C646.212 543.145 649.2 548.978 649.2 548.978Z" fill="#F2F2F2"/>
<path d="M148.137 532.075L125.6 525.252C122.644 513.244 122.664 500.695 125.659 488.697C134.94 508.626 161.458 513.189 176.741 528.992C181.47 533.958 185.021 539.923 187.13 546.448C189.24 552.972 189.855 559.887 188.929 566.682L193.862 582.637C182.821 581.84 172.085 578.659 162.392 573.313C152.699 567.967 144.281 560.584 137.716 551.671C134.083 546.635 131.099 541.161 128.833 535.379C138.392 534.294 148.137 532.075 148.137 532.075Z" fill="#F2F2F2"/>
<path d="M631.662 583.697C631.659 584.164 631.473 584.611 631.145 584.943C630.982 585.105 630.789 585.233 630.577 585.321C630.364 585.408 630.137 585.452 629.907 585.452H622.851C622.621 585.453 622.392 585.408 622.179 585.32C621.965 585.232 621.772 585.103 621.608 584.939C621.445 584.776 621.316 584.582 621.228 584.369C621.14 584.156 621.095 583.927 621.096 583.697V370.318C621.096 365.614 619.516 361.797 617.577 361.788H88.8357C86.8875 361.797 85.3166 365.614 85.3078 370.318V582.389C85.3064 582.825 85.1431 583.245 84.8496 583.568C84.5562 583.89 84.1534 584.093 83.7194 584.135C82.2977 584.276 80.876 584.399 79.463 584.513C79.4279 584.513 79.3928 584.521 79.3577 584.521C78.5855 584.592 77.8132 584.644 77.0409 584.706H77.0321C76.6284 583.977 76.2423 583.231 75.8474 582.485C75.7208 582.232 75.6547 581.953 75.6543 581.669V359.252C75.6543 357.953 75.707 356.645 75.7947 355.355C75.9199 353.584 76.1396 351.82 76.4529 350.072C77.936 341.919 81.2885 336.399 85.0972 336.382H621.307C621.863 336.386 622.412 336.502 622.922 336.724C623.67 337.055 624.347 337.529 624.914 338.119C625.683 338.92 626.342 339.82 626.871 340.796C628.749 344.105 630.092 349.037 630.565 354.776C630.565 354.829 630.574 354.881 630.574 354.934C630.697 356.356 630.758 357.804 630.75 359.252L630.873 378.059L630.952 389.274L631.188 424.466L631.276 436.963L631.662 583.697Z" fill="#E6E6E6"/>
<path d="M678.328 587.629L436.331 587.899C436.055 587.898 435.79 587.787 435.595 587.591C435.399 587.396 435.29 587.13 435.29 586.854C435.29 586.577 435.399 586.312 435.595 586.116C435.79 585.92 436.055 585.81 436.331 585.809L678.328 585.539C678.604 585.54 678.869 585.65 679.065 585.846C679.26 586.042 679.37 586.307 679.37 586.584C679.37 586.861 679.26 587.126 679.065 587.322C678.869 587.518 678.604 587.628 678.328 587.629Z" fill="#CACACA"/>
<path d="M377.952 274.038H335.091C334.485 274.039 333.904 274.281 333.476 274.71C333.048 275.139 332.807 275.721 332.808 276.327V344.034H380.241V276.327C380.241 276.027 380.182 275.729 380.067 275.451C379.952 275.173 379.783 274.921 379.571 274.708C379.358 274.496 379.106 274.327 378.828 274.212C378.55 274.097 378.252 274.038 377.952 274.038ZM356.666 312.508C355.325 312.502 354.042 311.967 353.094 311.019C352.146 310.071 351.611 308.787 351.605 307.447V299.638C351.605 298.295 352.138 297.008 353.087 296.059C354.036 295.11 355.323 294.577 356.666 294.577C358.008 294.577 359.295 295.11 360.244 296.059C361.194 297.008 361.727 298.295 361.727 299.638V307.447C361.721 308.787 361.185 310.071 360.238 311.019C359.29 311.967 358.006 312.502 356.666 312.508V312.508Z" fill="#2F2E41"/>
<path d="M448.924 168.375H265.714C264.14 168.378 262.631 169.004 261.518 170.117C260.405 171.23 259.778 172.739 259.776 174.313V297.944C259.777 299.518 260.403 301.028 261.517 302.141C262.63 303.254 264.139 303.88 265.714 303.882H448.924C450.498 303.88 452.008 303.254 453.121 302.141C454.234 301.028 454.86 299.518 454.862 297.944V174.313C454.859 172.739 454.233 171.23 453.12 170.117C452.007 169.004 450.498 168.378 448.924 168.375V168.375Z" fill="#3F3D56"/>
<path d="M447.392 172.663H267.241C266.399 172.664 265.591 173.001 264.996 173.597C264.4 174.194 264.066 175.002 264.066 175.845V296.411C264.067 297.253 264.402 298.06 264.998 298.655C265.593 299.251 266.4 299.586 267.241 299.587H447.392C448.233 299.586 449.04 299.251 449.636 298.655C450.231 298.06 450.566 297.253 450.567 296.411V175.845C450.567 175.002 450.233 174.194 449.637 173.597C449.042 173.001 448.235 172.664 447.392 172.663V172.663Z" fill="white"/>
<path d="M332.661 341.868V348.4C332.661 348.739 332.796 349.063 333.035 349.303C333.275 349.542 333.599 349.677 333.938 349.678H379.111C379.449 349.676 379.773 349.541 380.012 349.302C380.251 349.062 380.386 348.739 380.388 348.4V341.868H332.661Z" fill="#3F3D56"/>
<path d="M412.305 351.951H305.125C304.832 351.951 304.542 351.885 304.277 351.759C304.012 351.633 303.779 351.449 303.594 351.221C303.409 350.994 303.277 350.727 303.208 350.442C303.14 350.157 303.135 349.86 303.196 349.573L304.859 341.674C304.953 341.232 305.196 340.836 305.547 340.551C305.898 340.267 306.336 340.111 306.788 340.109H410.642C411.094 340.111 411.531 340.267 411.882 340.551C412.233 340.836 412.476 341.232 412.571 341.674L414.234 349.573C414.294 349.86 414.29 350.157 414.221 350.442C414.152 350.727 414.02 350.994 413.836 351.221C413.651 351.449 413.417 351.633 413.152 351.759C412.888 351.885 412.598 351.951 412.305 351.951V351.951Z" fill="#2F2E41"/>
<path d="M310.421 341.531H307.977C307.741 341.531 307.549 341.723 307.549 341.96V343.084C307.549 343.32 307.741 343.512 307.977 343.512H310.421C310.658 343.512 310.85 343.32 310.85 343.084V341.96C310.85 341.723 310.658 341.531 310.421 341.531Z" fill="#3F3D56"/>
<path d="M317.023 341.531H314.579C314.343 341.531 314.151 341.723 314.151 341.96V343.084C314.151 343.32 314.343 343.512 314.579 343.512H317.023C317.26 343.512 317.452 343.32 317.452 343.084V341.96C317.452 341.723 317.26 341.531 317.023 341.531Z" fill="#3F3D56"/>
<path d="M323.625 341.531H321.181C320.945 341.531 320.753 341.723 320.753 341.96V343.084C320.753 343.32 320.945 343.512 321.181 343.512H323.625C323.862 343.512 324.054 343.32 324.054 343.084V341.96C324.054 341.723 323.862 341.531 323.625 341.531Z" fill="#3F3D56"/>
<path d="M330.228 341.531H327.783C327.547 341.531 327.355 341.723 327.355 341.96V343.084C327.355 343.32 327.547 343.512 327.783 343.512H330.228C330.464 343.512 330.656 343.32 330.656 343.084V341.96C330.656 341.723 330.464 341.531 330.228 341.531Z" fill="#3F3D56"/>
<path d="M336.83 341.531H334.385C334.149 341.531 333.957 341.723 333.957 341.96V343.084C333.957 343.32 334.149 343.512 334.385 343.512H336.83C337.066 343.512 337.258 343.32 337.258 343.084V341.96C337.258 341.723 337.066 341.531 336.83 341.531Z" fill="#3F3D56"/>
<path d="M343.432 341.531H340.988C340.751 341.531 340.559 341.723 340.559 341.96V343.084C340.559 343.32 340.751 343.512 340.988 343.512H343.432C343.668 343.512 343.86 343.32 343.86 343.084V341.96C343.86 341.723 343.668 341.531 343.432 341.531Z" fill="#3F3D56"/>
<path d="M350.034 341.531H347.59C347.353 341.531 347.161 341.723 347.161 341.96V343.084C347.161 343.32 347.353 343.512 347.59 343.512H350.034C350.27 343.512 350.462 343.32 350.462 343.084V341.96C350.462 341.723 350.27 341.531 350.034 341.531Z" fill="#3F3D56"/>
<path d="M356.636 341.531H354.192C353.955 341.531 353.763 341.723 353.763 341.96V343.084C353.763 343.32 353.955 343.512 354.192 343.512H356.636C356.872 343.512 357.064 343.32 357.064 343.084V341.96C357.064 341.723 356.872 341.531 356.636 341.531Z" fill="#3F3D56"/>
<path d="M363.238 341.531H360.794C360.557 341.531 360.365 341.723 360.365 341.96V343.084C360.365 343.32 360.557 343.512 360.794 343.512H363.238C363.474 343.512 363.666 343.32 363.666 343.084V341.96C363.666 341.723 363.474 341.531 363.238 341.531Z" fill="#3F3D56"/>
<path d="M369.84 341.531H367.396C367.159 341.531 366.967 341.723 366.967 341.96V343.084C366.967 343.32 367.159 343.512 367.396 343.512H369.84C370.076 343.512 370.268 343.32 370.268 343.084V341.96C370.268 341.723 370.076 341.531 369.84 341.531Z" fill="#3F3D56"/>
<path d="M376.442 341.531H373.998C373.761 341.531 373.569 341.723 373.569 341.96V343.084C373.569 343.32 373.761 343.512 373.998 343.512H376.442C376.679 343.512 376.87 343.32 376.87 343.084V341.96C376.87 341.723 376.679 341.531 376.442 341.531Z" fill="#3F3D56"/>
<path d="M383.044 341.531H380.6C380.363 341.531 380.171 341.723 380.171 341.96V343.084C380.171 343.32 380.363 343.512 380.6 343.512H383.044C383.281 343.512 383.472 343.32 383.472 343.084V341.96C383.472 341.723 383.281 341.531 383.044 341.531Z" fill="#3F3D56"/>
<path d="M389.646 341.531H387.202C386.965 341.531 386.773 341.723 386.773 341.96V343.084C386.773 343.32 386.965 343.512 387.202 343.512H389.646C389.883 343.512 390.075 343.32 390.075 343.084V341.96C390.075 341.723 389.883 341.531 389.646 341.531Z" fill="#3F3D56"/>
<path d="M396.248 341.531H393.804C393.567 341.531 393.375 341.723 393.375 341.96V343.084C393.375 343.32 393.567 343.512 393.804 343.512H396.248C396.485 343.512 396.677 343.32 396.677 343.084V341.96C396.677 341.723 396.485 341.531 396.248 341.531Z" fill="#3F3D56"/>
<path d="M402.85 341.531H400.406C400.169 341.531 399.978 341.723 399.978 341.96V343.084C399.978 343.32 400.169 343.512 400.406 343.512H402.85C403.087 343.512 403.279 343.32 403.279 343.084V341.96C403.279 341.723 403.087 341.531 402.85 341.531Z" fill="#3F3D56"/>
<path d="M409.452 341.531H407.008C406.771 341.531 406.58 341.723 406.58 341.96V343.084C406.58 343.32 406.771 343.512 407.008 343.512H409.452C409.689 343.512 409.881 343.32 409.881 343.084V341.96C409.881 341.723 409.689 341.531 409.452 341.531Z" fill="#3F3D56"/>
<path d="M310.343 344.832H307.899C307.663 344.832 307.471 345.024 307.471 345.26V346.384C307.471 346.621 307.663 346.813 307.899 346.813H310.343C310.58 346.813 310.772 346.621 310.772 346.384V345.26C310.772 345.024 310.58 344.832 310.343 344.832Z" fill="#3F3D56"/>
<path d="M316.945 344.832H314.501C314.265 344.832 314.073 345.024 314.073 345.26V346.384C314.073 346.621 314.265 346.813 314.501 346.813H316.945C317.182 346.813 317.374 346.621 317.374 346.384V345.26C317.374 345.024 317.182 344.832 316.945 344.832Z" fill="#3F3D56"/>
<path d="M323.547 344.832H321.103C320.867 344.832 320.675 345.024 320.675 345.26V346.384C320.675 346.621 320.867 346.813 321.103 346.813H323.547C323.784 346.813 323.976 346.621 323.976 346.384V345.26C323.976 345.024 323.784 344.832 323.547 344.832Z" fill="#3F3D56"/>
<path d="M330.149 344.832H327.705C327.469 344.832 327.277 345.024 327.277 345.26V346.384C327.277 346.621 327.469 346.813 327.705 346.813H330.149C330.386 346.813 330.578 346.621 330.578 346.384V345.26C330.578 345.024 330.386 344.832 330.149 344.832Z" fill="#3F3D56"/>
<path d="M336.751 344.832H334.307C334.071 344.832 333.879 345.024 333.879 345.26V346.384C333.879 346.621 334.071 346.813 334.307 346.813H336.751C336.988 346.813 337.18 346.621 337.18 346.384V345.26C337.18 345.024 336.988 344.832 336.751 344.832Z" fill="#3F3D56"/>
<path d="M343.354 344.832H340.909C340.673 344.832 340.481 345.024 340.481 345.26V346.384C340.481 346.621 340.673 346.813 340.909 346.813H343.354C343.59 346.813 343.782 346.621 343.782 346.384V345.26C343.782 345.024 343.59 344.832 343.354 344.832Z" fill="#3F3D56"/>
<path d="M349.956 344.832H347.511C347.275 344.832 347.083 345.024 347.083 345.26V346.384C347.083 346.621 347.275 346.813 347.511 346.813H349.956C350.192 346.813 350.384 346.621 350.384 346.384V345.26C350.384 345.024 350.192 344.832 349.956 344.832Z" fill="#3F3D56"/>
<path d="M356.558 344.832H354.113C353.877 344.832 353.685 345.024 353.685 345.26V346.384C353.685 346.621 353.877 346.813 354.113 346.813H356.558C356.794 346.813 356.986 346.621 356.986 346.384V345.26C356.986 345.024 356.794 344.832 356.558 344.832Z" fill="#3F3D56"/>
<path d="M363.16 344.832H360.716C360.479 344.832 360.287 345.024 360.287 345.26V346.384C360.287 346.621 360.479 346.813 360.716 346.813H363.16C363.396 346.813 363.588 346.621 363.588 346.384V345.26C363.588 345.024 363.396 344.832 363.16 344.832Z" fill="#3F3D56"/>
<path d="M369.762 344.832H367.318C367.081 344.832 366.889 345.024 366.889 345.26V346.384C366.889 346.621 367.081 346.813 367.318 346.813H369.762C369.998 346.813 370.19 346.621 370.19 346.384V345.26C370.19 345.024 369.998 344.832 369.762 344.832Z" fill="#3F3D56"/>
<path d="M376.364 344.832H373.92C373.683 344.832 373.491 345.024 373.491 345.26V346.384C373.491 346.621 373.683 346.813 373.92 346.813H376.364C376.6 346.813 376.792 346.621 376.792 346.384V345.26C376.792 345.024 376.6 344.832 376.364 344.832Z" fill="#3F3D56"/>
<path d="M382.966 344.832H380.522C380.285 344.832 380.093 345.024 380.093 345.26V346.384C380.093 346.621 380.285 346.813 380.522 346.813H382.966C383.203 346.813 383.394 346.621 383.394 346.384V345.26C383.394 345.024 383.203 344.832 382.966 344.832Z" fill="#3F3D56"/>
<path d="M389.568 344.832H387.124C386.887 344.832 386.695 345.024 386.695 345.26V346.384C386.695 346.621 386.887 346.813 387.124 346.813H389.568C389.805 346.813 389.996 346.621 389.996 346.384V345.26C389.996 345.024 389.805 344.832 389.568 344.832Z" fill="#3F3D56"/>
<path d="M396.17 344.832H393.726C393.489 344.832 393.297 345.024 393.297 345.26V346.384C393.297 346.621 393.489 346.813 393.726 346.813H396.17C396.407 346.813 396.598 346.621 396.598 346.384V345.26C396.598 345.024 396.407 344.832 396.17 344.832Z" fill="#3F3D56"/>
<path d="M402.772 344.832H400.328C400.091 344.832 399.899 345.024 399.899 345.26V346.384C399.899 346.621 400.091 346.813 400.328 346.813H402.772C403.009 346.813 403.2 346.621 403.2 346.384V345.26C403.2 345.024 403.009 344.832 402.772 344.832Z" fill="#3F3D56"/>
<path d="M409.374 344.832H406.93C406.693 344.832 406.501 345.024 406.501 345.26V346.384C406.501 346.621 406.693 346.813 406.93 346.813H409.374C409.611 346.813 409.803 346.621 409.803 346.384V345.26C409.803 345.024 409.611 344.832 409.374 344.832Z" fill="#3F3D56"/>
<path d="M365.14 348.793H339.589C339.352 348.793 339.161 348.985 339.161 349.222V350.346C339.161 350.582 339.352 350.774 339.589 350.774H365.14C365.377 350.774 365.569 350.582 365.569 350.346V349.222C365.569 348.985 365.377 348.793 365.14 348.793Z" fill="#3F3D56"/>
<path d="M438.339 189.275H269.773C269.597 189.272 269.43 189.199 269.308 189.074C269.185 188.949 269.116 188.78 269.116 188.605C269.116 188.429 269.185 188.261 269.308 188.136C269.43 188.01 269.597 187.938 269.773 187.935H438.339C438.514 187.938 438.681 188.01 438.804 188.136C438.926 188.261 438.995 188.429 438.995 188.605C438.995 188.78 438.926 188.949 438.804 189.074C438.681 189.199 438.514 189.272 438.339 189.275V189.275Z" fill="#CACACA"/>
<path d="M281.247 184.512C283.417 184.512 285.176 182.714 285.176 180.496C285.176 178.278 283.417 176.48 281.247 176.48C279.078 176.48 277.319 178.278 277.319 180.496C277.319 182.714 279.078 184.512 281.247 184.512Z" fill="#3F3D56"/>
<path d="M294.819 184.512C296.988 184.512 298.747 182.714 298.747 180.496C298.747 178.278 296.988 176.48 294.819 176.48C292.649 176.48 290.89 178.278 290.89 180.496C290.89 182.714 292.649 184.512 294.819 184.512Z" fill="#3F3D56"/>
<path d="M308.39 184.512C310.56 184.512 312.318 182.714 312.318 180.496C312.318 178.278 310.56 176.48 308.39 176.48C306.22 176.48 304.461 178.278 304.461 180.496C304.461 182.714 306.22 184.512 308.39 184.512Z" fill="#3F3D56"/>
<path d="M430.168 177.476H420.528C420.336 177.479 420.155 177.558 420.021 177.694C419.887 177.831 419.812 178.014 419.812 178.205C419.812 178.397 419.887 178.58 420.021 178.717C420.155 178.853 420.336 178.932 420.528 178.935H430.168C430.359 178.932 430.541 178.853 430.675 178.717C430.808 178.58 430.883 178.397 430.883 178.205C430.883 178.014 430.808 177.831 430.675 177.694C430.541 177.558 430.359 177.479 430.168 177.476V177.476Z" fill="#3F3D56"/>
<path d="M430.168 180.215H420.528C420.336 180.219 420.155 180.298 420.021 180.434C419.887 180.571 419.812 180.754 419.812 180.945C419.812 181.136 419.887 181.32 420.021 181.456C420.155 181.593 420.336 181.671 420.528 181.675H430.168C430.359 181.671 430.541 181.593 430.675 181.456C430.808 181.32 430.883 181.136 430.883 180.945C430.883 180.754 430.808 180.571 430.675 180.434C430.541 180.298 430.359 180.219 430.168 180.215V180.215Z" fill="#3F3D56"/>
<path d="M430.168 182.952H420.528C420.336 182.955 420.155 183.034 420.021 183.171C419.887 183.307 419.812 183.49 419.812 183.682C419.812 183.873 419.887 184.056 420.021 184.193C420.155 184.329 420.336 184.408 420.528 184.411H430.168C430.359 184.408 430.541 184.329 430.675 184.193C430.808 184.056 430.883 183.873 430.883 183.682C430.883 183.49 430.808 183.307 430.675 183.171C430.541 183.034 430.359 182.955 430.168 182.952V182.952Z" fill="#3F3D56"/>
<path d="M367.521 228.438H346.458C344.876 228.438 343.593 229.72 343.593 231.302V231.302C343.593 232.884 344.876 234.167 346.458 234.167H367.521C369.103 234.167 370.386 232.884 370.386 231.302V231.302C370.386 229.72 369.103 228.438 367.521 228.438Z" fill="#3D7DBD"/>
<path d="M381.128 239.896H332.851C331.269 239.896 329.986 241.178 329.986 242.76V242.76C329.986 244.342 331.269 245.625 332.851 245.625H381.128C382.71 245.625 383.993 244.342 383.993 242.76C383.993 241.178 382.71 239.896 381.128 239.896Z" fill="#E6E6E6"/>
<path d="M381.128 251.354H332.851C331.269 251.354 329.986 252.637 329.986 254.219C329.986 255.801 331.269 257.084 332.851 257.084H381.128C382.71 257.084 383.993 255.801 383.993 254.219C383.993 252.637 382.71 251.354 381.128 251.354Z" fill="#E6E6E6"/>
<path d="M271.419 360.568H218.763C216.901 360.568 215.116 361.308 213.799 362.625C212.482 363.941 211.743 365.727 211.743 367.589C211.743 369.451 212.482 371.237 213.799 372.553C215.116 373.87 216.901 374.61 218.763 374.61H238.07V429.021H252.112V374.61H271.419C273.281 374.61 275.067 373.87 276.383 372.553C277.7 371.237 278.44 369.451 278.44 367.589C278.44 365.727 277.7 363.941 276.383 362.625C275.067 361.308 273.281 360.568 271.419 360.568Z" fill="#3F3D56"/>
<path d="M306.173 459.154H165.334C151.681 459.105 138.501 454.144 128.202 445.18C117.903 436.215 111.173 423.845 109.241 410.329L104.256 391.991C93.9375 353.991 78.2202 317.668 57.5846 284.132C48.1528 268.815 43.2983 253.988 54.3244 239.712C54.4183 239.591 54.5106 239.471 54.6014 239.353C63.445 227.842 107.463 225.35 121.812 224.866C122.379 224.846 122.948 224.837 123.519 224.837H211.12C211.691 224.837 212.26 224.846 212.827 224.866C220.562 225.091 228.092 227.406 234.618 231.566C241.144 235.726 246.422 241.574 249.893 248.491C253.596 255.553 255.318 263.486 254.877 271.448C254.436 279.41 251.847 287.104 247.387 293.713C216.615 339.937 207.194 368.921 216.839 387.691C226.169 405.846 254.769 415.128 306.844 416.901C320.838 417.378 327.261 428.275 327.306 438.198C327.35 447.864 321.175 458.537 307.514 459.126C307.07 459.145 306.623 459.154 306.173 459.154Z" fill="#3F3D56"/>
<path d="M189.26 584.211H241.915C243.777 584.211 245.563 583.471 246.88 582.155C248.196 580.838 248.936 579.052 248.936 577.19C248.936 575.328 248.196 573.542 246.88 572.226C245.563 570.909 243.777 570.169 241.915 570.169H222.608V451.694H208.567V570.169H189.26C187.397 570.169 185.612 570.909 184.295 572.226C182.978 573.542 182.239 575.328 182.239 577.19C182.239 579.052 182.978 580.838 184.295 582.155C185.612 583.471 187.397 584.211 189.26 584.211Z" fill="#3F3D56"/>
<path d="M185.054 229.235L186.158 235.942C186.68 239.194 188.571 262.169 187.17 264.911C187.046 259.793 177.516 251.747 171.342 253.584L161.651 255.737L155.636 257.075L150.741 258.148L136.516 261.256C136.491 261.091 136.473 260.916 136.448 260.751C136.415 260.542 136.381 260.334 136.339 260.128C136.074 258.794 135.591 257.513 134.909 256.336C134.837 257.912 134.372 259.445 133.555 260.796C133.533 260.831 133.514 260.868 133.497 260.907C133.245 261.315 132.966 261.708 132.663 262.081C132.649 262.09 132.636 262.102 132.625 262.115C132.625 262.115 129.702 215.524 130.008 215.094C130.232 214.788 130.458 214.491 130.695 214.201C130.929 213.902 131.157 213.614 131.401 213.322C131.433 213.294 131.459 213.261 131.48 213.225C132.166 212.413 132.892 211.637 133.656 210.899C133.88 210.683 134.113 210.465 134.346 210.247C137.905 206.954 142.157 204.501 146.789 203.07C147.312 202.909 147.855 202.762 148.407 202.613C148.952 202.475 149.507 202.343 150.066 202.229L150.255 202.19C150.522 202.136 150.798 202.088 151.067 202.042C151.404 201.982 151.743 201.931 152.075 201.889C156.384 201.269 160.775 201.515 164.988 202.615C164.997 202.614 164.998 202.622 165.007 202.62C168.524 203.539 171.866 205.028 174.902 207.027C180.153 210.494 182.197 216.149 183.649 222.499C184.158 224.679 184.586 226.947 185.054 229.235Z" fill="#2F2E41"/>
<path d="M236.918 536.448L245.989 541.375L270.001 508.174L256.613 500.902L236.918 536.448Z" fill="#FFB6B6"/>
<path d="M241.284 524.617L257.751 529.774L255.13 536.672L266.422 553.061C266.98 553.871 267.264 554.837 267.234 555.82C267.204 556.802 266.86 557.749 266.253 558.522C265.646 559.296 264.808 559.855 263.861 560.118C262.914 560.382 261.908 560.335 260.989 559.986L241.819 552.703L241.107 544.624L237.224 550.958L229.997 548.212L241.284 524.617Z" fill="#2F2E41"/>
<path d="M288.298 387.949C286.85 388.301 285.343 388.332 283.882 388.039C282.421 387.746 281.042 387.136 279.842 386.252C278.642 385.369 277.651 384.233 276.937 382.924C276.224 381.616 275.806 380.167 275.714 378.68L198.344 350.846L212.543 338.49L285.978 367.728C288.487 367.738 290.905 368.668 292.774 370.341C294.643 372.015 295.833 374.316 296.119 376.808C296.405 379.301 295.767 381.811 294.325 383.865C292.884 385.918 290.739 387.371 288.298 387.949V387.949Z" fill="#FFB6B6"/>
<path d="M176.73 281.891C176.73 281.891 163.699 282.178 162.54 297.055C161.382 311.932 189.815 348.729 194.22 354.798C198.626 360.866 247.557 368.335 247.557 368.335L264.191 356.259C246.713 344.934 230.762 336.25 220.057 336.64L176.73 281.891Z" fill="#3D7DBD"/>
<path d="M160.748 347.533L163.923 361.176C163.923 361.176 163.955 373.756 166.182 376.076C168.395 378.385 217.044 373.749 217.044 373.749C217.044 373.749 211.886 353.477 211.954 338.138L160.748 347.533Z" fill="#FFB6B6"/>
<path d="M263.521 522.045L245.969 512.392C245.635 489.552 259.373 458.645 275.666 426.271C239.226 432.538 204.848 434.546 175.112 426.965C170.231 425.676 166.052 422.517 163.48 418.173C160.908 413.828 160.149 408.645 161.367 403.746C161.483 403.264 161.616 402.788 161.768 402.318C165.327 391.46 157.347 384.653 164.687 372.711C183.991 366.118 202.329 364.257 219.098 370.078L229.605 393.309L281.683 386.57C284.199 386.269 286.75 386.47 289.188 387.159C291.627 387.849 293.905 389.014 295.89 390.588C297.876 392.162 299.531 394.113 300.759 396.33C301.988 398.546 302.765 400.984 303.047 403.502C303.117 404.068 303.163 404.635 303.184 405.205C292.654 454.572 280.846 498.992 263.521 522.045Z" fill="#2F2E41"/>
<path d="M153.679 261.157L173.741 259.973C174.587 259.923 175.428 260.138 176.146 260.589C176.864 261.039 177.423 261.702 177.747 262.486L183.416 276.23L206.98 295.706C206.98 295.706 216.309 307.578 216.331 322.91C216.353 338.243 219.641 373.732 219.641 373.732C219.641 373.732 206.025 354.566 197.621 359.664C196.191 360.531 195.688 362.304 194.191 363.201C193.444 363.648 191.718 363.213 190.963 363.661C179.383 370.535 167.305 377.252 166.177 376.074C163.961 373.762 161.273 361.947 161.273 361.947L142.909 294.471C141.913 290.921 141.715 287.194 142.33 283.559C142.944 279.923 144.356 276.468 146.463 273.443C147.745 271.636 149.09 270.292 150.339 270.07C153.144 269.473 151.652 263.186 153.679 261.157Z" fill="#3D7DBD"/>
<path d="M324.344 565.03L332.813 559.142L313.628 522.946L301.129 531.636L324.344 565.03Z" fill="#FFB6B6"/>
<path d="M325.624 540.743L312.351 552.607C291.247 529.091 275.293 496.111 261.773 458.658C226.348 448.283 199.633 431.55 176.311 411.683C168.399 404.989 162.468 396.388 169.216 388.233C169.531 387.852 169.861 387.483 170.204 387.127C178.171 378.939 198.375 380.499 210.209 372.998L236.643 401.253L234.98 408.828L284.632 425.647C287.021 426.485 289.221 427.787 291.104 429.478C292.987 431.17 294.517 433.218 295.605 435.503C296.693 437.789 297.318 440.268 297.443 442.796C297.568 445.325 297.192 447.853 296.335 450.235C296.149 450.773 295.941 451.303 295.709 451.825L325.624 540.743Z" fill="#2F2E41"/>
<path d="M319.406 562.643L332.963 551.967L337.175 558.026L357.077 557.966C358.06 557.963 359.018 558.274 359.812 558.854C360.606 559.434 361.193 560.253 361.488 561.19C361.784 562.128 361.772 563.135 361.454 564.065C361.137 564.996 360.53 565.8 359.723 566.361L342.884 578.066L335.816 574.089L338.849 580.871L332.5 585.284L319.406 562.643Z" fill="#2F2E41"/>
<path d="M183.305 431.208C181.933 430.626 180.706 429.75 179.709 428.642C178.713 427.534 177.971 426.221 177.537 424.796C177.103 423.371 176.986 421.867 177.196 420.392C177.405 418.917 177.936 417.505 178.75 416.257L133.331 347.716L152.099 346.289L193.524 413.606C195.53 415.113 196.913 417.303 197.413 419.761C197.912 422.22 197.492 424.776 196.232 426.946C194.973 429.116 192.961 430.748 190.578 431.533C188.196 432.319 185.608 432.203 183.305 431.208Z" fill="#FFB6B6"/>
<path d="M186.004 221.354C185.199 221.752 184.417 222.136 183.649 222.499C180.569 224.013 177.386 225.308 174.123 226.374C173.58 224.897 172.752 223.542 171.685 222.385C171.958 223.983 171.819 225.624 171.281 227.153C166.343 228.376 161.159 228.175 156.329 226.575C159.488 232.423 161.821 244.747 161.651 255.737C161.577 261.547 160.791 266.985 159.073 270.892L156.866 264.178C156.662 261.779 156.25 259.403 155.637 257.075C154.157 250.543 152.775 254.91 150.741 258.148L136.517 261.256C136.492 261.091 136.474 260.915 136.449 260.75C136.415 260.542 136.382 260.334 136.339 260.128C136.075 258.794 135.591 257.512 134.91 256.336C134.837 257.912 134.372 259.445 133.556 260.796C133.534 260.831 133.514 260.868 133.498 260.906C133.245 261.315 132.966 261.707 132.663 262.08C132.649 262.09 132.636 262.102 132.625 262.115C123.441 263.344 117.003 215.983 130.011 215.102C130.389 215.076 130.461 214.499 130.695 214.201C130.929 213.902 131.157 213.613 131.402 213.321C131.433 213.294 131.46 213.261 131.481 213.225C132.176 212.42 132.895 211.645 133.656 210.898C133.881 210.682 134.114 210.464 134.347 210.246C137.917 206.97 142.166 204.522 146.791 203.078C147.314 202.917 147.855 202.762 148.407 202.613C148.952 202.474 149.508 202.343 150.066 202.229L150.256 202.19C150.522 202.135 150.799 202.088 151.067 202.042C151.404 201.982 151.743 201.93 152.075 201.889C153.322 202.517 154.388 203.452 155.175 204.605L164.263 202.746C164.503 202.696 164.746 202.656 164.99 202.624L165.007 202.62C176.353 200.719 183.648 209.842 186.004 221.354Z" fill="#2F2E41"/>
<path d="M191.558 364.078H138.902C137.04 364.078 135.254 364.818 133.938 366.134C132.621 367.451 131.881 369.237 131.881 371.099C131.881 372.961 132.621 374.747 133.938 376.063C135.254 377.38 137.04 378.12 138.902 378.12H158.209V432.53H172.251V378.12H191.558C193.42 378.12 195.205 377.38 196.522 376.063C197.839 374.747 198.578 372.961 198.578 371.099C198.578 369.237 197.839 367.451 196.522 366.134C195.205 364.818 193.42 364.078 191.558 364.078Z" fill="#3F3D56"/>
<path d="M386.089 586.751L1.04484 587.021C0.768234 587.02 0.503233 586.909 0.307923 586.714C0.112613 586.518 0.00292969 586.252 0.00292969 585.976C0.00292969 585.699 0.112613 585.434 0.307923 585.238C0.503233 585.042 0.768234 584.932 1.04484 584.931L386.089 584.661C386.366 584.662 386.631 584.772 386.826 584.968C387.021 585.164 387.131 585.429 387.131 585.706C387.131 585.983 387.021 586.248 386.826 586.444C386.631 586.64 386.366 586.75 386.089 586.751Z" fill="#CACACA"/>
<path d="M498.14 470.193L506.712 479.534L546.821 450.918L534.17 437.131L498.14 470.193Z" fill="#A0616A"/>
<path d="M515.881 483.413V483.405L515.013 474.076L514.618 473.891L512.31 472.795L501.419 467.643L501.19 467.397L499.005 465.01L486.903 476.121L503.297 493.988L514.539 506.24L514.916 505.889C516.457 504.477 517.704 502.776 518.586 500.882C519.469 498.988 519.969 496.939 520.059 494.851C520.148 492.764 519.826 490.679 519.109 488.716C518.392 486.754 517.295 484.952 515.881 483.413H515.881Z" fill="#2F2E41"/>
<path d="M453.731 563.38L465.862 567.065L485.848 522.028L467.944 516.59L453.731 563.38Z" fill="#A0616A"/>
<path d="M485.139 573.463C484.162 571.617 482.826 569.983 481.211 568.657C479.596 567.331 477.733 566.34 475.732 565.741L470.229 558.149L469.799 558.184L455.257 559.518L454.933 559.422L451.843 558.483L447.069 574.2L486.184 586.083L486.333 585.583C486.943 583.584 487.152 581.484 486.947 579.404C486.742 577.324 486.128 575.305 485.139 573.463V573.463Z" fill="#2F2E41"/>
<path d="M553.759 327.577C553.759 327.577 631.208 402.355 582.246 425.501H567.113C567.113 425.501 562.565 409.344 552.154 395.719C550.724 393.848 545.368 394.228 543.881 392.405C534.798 381.271 524.952 371.709 518.151 372.088L519.778 423.755L522.411 442.184C523.793 451.711 484.778 534.896 484.778 534.896L460.255 525.258C460.255 525.258 485.805 456.743 486.104 446.866L465.629 338.26L553.759 327.577Z" fill="#2F2E41"/>
<path d="M560.218 331.265C559.823 331.828 559.307 332.296 558.708 332.634C557.722 333.192 556.652 333.589 555.54 333.81C538.103 337.768 481.138 345.974 466.35 342.06C464.534 341.586 463.349 340.919 462.963 340.041C461.726 337.268 461.883 325.552 462.612 311.405C462.744 308.755 465.666 305.885 465.841 303.112C465.964 301.032 463.34 299.075 463.481 296.96C464.446 282.655 465.692 268.079 466.526 258.864C467.053 252.94 467.412 249.237 467.412 249.237L458.417 192.518L458.838 191.825L459.312 191.588L488.317 177.23L489.896 173.193C490.354 172.031 491.15 171.032 492.181 170.327C493.212 169.621 494.43 169.241 495.68 169.235L514.785 169.156C515.776 169.151 516.754 169.382 517.638 169.831C518.522 170.28 519.286 170.933 519.866 171.736L525.044 178.906L559.27 200.846L559.138 201.25L543.078 250.123L542.999 253.932V253.941L542.403 284.569L544.061 288.72L542.192 295.53C542.192 295.53 543.052 303.489 547.66 309.404C551.837 314.775 557.155 320.374 559.56 324.92V324.929C560.894 327.439 561.341 329.615 560.218 331.265Z" fill="#3D7DBD"/>
<path d="M585.965 421.059L581.825 426.29C581.825 426.29 543.752 452.926 542.445 455.415L536.428 461.109L521.869 445.546L529.44 436.057C535.499 428.462 543.327 422.469 552.239 418.602V418.602L563.843 408.307L585.965 421.059Z" fill="#2F2E41"/>
<path d="M561.773 346.299L554.839 279.189L553.009 251.569L572.415 248.06C572.415 248.06 571.646 267.809 574.189 278.952C576.697 289.947 574.521 344.825 574.366 346.293C575.792 347.567 576.796 349.244 577.248 351.102C577.699 352.96 577.575 354.911 576.894 356.697C576.212 358.483 575.004 360.02 573.43 361.105C571.856 362.19 569.989 362.771 568.077 362.772C566.165 362.773 564.298 362.194 562.723 361.11C561.148 360.027 559.938 358.491 559.255 356.705C558.572 354.92 558.446 352.969 558.896 351.111C559.345 349.252 560.349 347.574 561.773 346.299V346.299Z" fill="#A0616A"/>
<path d="M580.703 293.096L555.759 298.259L553.578 289.564L551.036 286.867L545.955 260.255L538.667 244.666L540.562 191.358L559.073 201.176L559.096 201.193C561.927 204.267 563.879 208.666 567.123 213.08C577.347 226.988 578.481 260.786 578.172 279.298C578.167 279.602 578.472 279.922 578.839 280.26C580.58 281.858 581.716 284.008 582.055 286.346C582.395 288.685 581.917 291.069 580.703 293.096V293.096Z" fill="#3D7DBD"/>
<path d="M448.823 348.931L455.756 281.822L457.586 254.201L438.18 250.692C438.18 250.692 438.949 270.442 436.407 281.584C433.898 292.58 436.074 347.458 436.229 348.925C434.804 350.2 433.799 351.877 433.348 353.735C432.897 355.592 433.02 357.544 433.702 359.33C434.383 361.116 435.591 362.653 437.165 363.738C438.74 364.823 440.606 365.404 442.518 365.405C444.43 365.406 446.297 364.826 447.872 363.743C449.448 362.66 450.657 361.124 451.34 359.338C452.024 357.553 452.149 355.602 451.699 353.743C451.25 351.885 450.247 350.207 448.823 348.931V348.931Z" fill="#A0616A"/>
<path d="M471.932 247.297L466.526 258.864L464.639 262.892L459.557 289.5L457.021 292.195L454.836 300.892L453.809 300.681L435.292 296.846L429.895 295.731C428.678 293.705 428.199 291.32 428.538 288.98C428.877 286.641 430.014 284.49 431.755 282.892C432.124 282.559 432.431 282.234 432.422 281.927C432.115 263.418 433.247 229.622 443.471 215.712C446.718 211.298 448.667 206.901 451.501 203.83C451.51 203.821 451.51 203.812 451.519 203.812L458.417 192.518L458.838 191.824L459.312 191.587L471.932 247.297Z" fill="#3D7DBD"/>
<path d="M504.68 163.717C518.719 163.717 530.1 152.336 530.1 138.297C530.1 124.258 518.719 112.877 504.68 112.877C490.641 112.877 479.26 124.258 479.26 138.297C479.26 152.336 490.641 163.717 504.68 163.717Z" fill="#A0616A"/>
<path d="M533.258 127.145C533.17 122.81 532.678 117.264 529.642 112.841C527.079 109.12 521.91 106.171 517.092 107.645C517.146 106.682 516.932 105.722 516.474 104.873C516.015 104.024 515.33 103.319 514.495 102.836C512.669 101.722 510.475 101.52 508.536 101.335C503.648 100.879 498.584 100.405 493.634 101.344C488.079 102.397 483.533 105.258 481.172 109.199L481.12 109.322L480.637 111.656C480.573 111.969 480.441 112.264 480.252 112.522C480.063 112.779 479.82 112.993 479.54 113.148C479.26 113.305 478.949 113.398 478.629 113.421C478.309 113.444 477.988 113.395 477.688 113.279C477.361 113.157 477.007 113.121 476.662 113.177C476.316 113.233 475.991 113.378 475.719 113.598C475.447 113.818 475.237 114.105 475.11 114.431C474.983 114.756 474.943 115.11 474.994 115.456L475.126 116.386L473.73 116.123C473.38 116.055 473.018 116.082 472.682 116.201C472.345 116.32 472.047 116.526 471.817 116.799C471.587 117.072 471.434 117.401 471.374 117.753C471.314 118.105 471.349 118.466 471.475 118.8L471.861 119.861C471.573 119.865 471.288 119.927 471.024 120.043C470.761 120.159 470.523 120.327 470.325 120.537C470.044 120.843 469.866 121.231 469.819 121.644C469.772 122.057 469.857 122.475 470.062 122.836C471.626 125.506 473.843 127.735 476.504 129.313C477.7 130.034 478.991 130.586 480.339 130.954C480.62 131.033 480.909 131.103 481.207 131.165C491.982 133.487 503.091 133.82 513.986 132.148C513.344 134.297 513.097 136.545 513.257 138.782C513.608 141.582 515.249 143.89 517.443 144.662C517.94 144.83 518.451 144.954 518.97 145.031C519.468 145.111 519.958 145.232 520.436 145.391C521.142 145.649 521.767 146.09 522.248 146.667C522.729 147.245 523.049 147.939 523.175 148.68C523.302 149.421 523.23 150.182 522.968 150.887C522.706 151.591 522.262 152.214 521.682 152.692C521.682 152.692 523.981 154.597 524.271 154.5C525.401 154.001 526.347 153.16 526.974 152.095C531.353 145.794 533.468 137.404 533.258 127.145Z" fill="#2F2E41"/>
</g>
<defs>
<clipPath id="clip0_147_1028">
<rect width="679.373" height="587.898" fill="white"/>
</clipPath>
</defs>
</svg>
