<?xml version="1.0" encoding="utf-8"?>
<svg class="ionicon" viewBox="0 0 512 512" xmlns="http://www.w3.org/2000/svg">
  <title>Logo Instagram</title>
  <path d="M 256 181.33 C 313.481 181.33 349.407 243.555 320.666 293.335 C 291.926 343.115 220.074 343.115 191.334 293.335 C 184.78 281.984 181.33 269.107 181.33 256 C 181.374 214.779 214.779 181.374 256 181.33 M 256 144 C 169.782 144 115.896 237.333 159.005 312 C 202.114 386.667 309.886 386.667 352.995 312 C 362.825 294.974 368 275.66 368 256 C 368 194.144 317.856 144 256 144 Z" fill="#fff"/>
  <path d="M 349.33 69.33 C 400.816 69.484 442.516 111.184 442.67 162.67 L 442.67 349.33 C 442.516 400.816 400.816 442.516 349.33 442.67 L 162.67 442.67 C 111.184 442.516 69.484 400.816 69.33 349.33 L 69.33 162.67 C 69.484 111.184 111.184 69.484 162.67 69.33 L 349.33 69.33 M 349.33 32 L 162.67 32 C 90.8 32 32 90.8 32 162.67 L 32 349.33 C 32 421.2 90.8 480 162.67 480 L 349.33 480 C 421.2 480 480 421.2 480 349.33 L 480 162.67 C 480 90.8 421.2 32 349.33 32 L 349.33 32 Z" fill="#fff"/>
</svg>