<svg width="841" height="721" viewBox="0 0 841 721" fill="none" xmlns="http://www.w3.org/2000/svg">
<path d="M469.062 719.667C469.173 718.782 469.615 718.229 470.498 718.229C471.493 718.229 472.487 718.119 473.481 718.229C491.154 718.671 508.717 717.566 526.39 717.234C540.197 717.013 554.115 716.128 567.922 715.796C581.287 715.464 594.542 714.58 607.908 713.584C618.07 712.81 628.232 711.926 638.283 709.935C638.283 713.253 639.609 717.787 637.952 719.335C636.295 720.883 631.766 719.667 628.563 719.667C575.323 719.667 522.193 719.667 469.062 719.667Z" fill="#FEFEFE"/>
<path d="M96.7106 710.599C106.873 712.368 117.145 713.032 127.528 713.695C143.213 714.69 158.898 715.465 174.583 716.017C190.71 716.57 206.837 716.902 222.853 717.566C234.23 718.008 245.607 717.787 256.984 718.119C258.199 718.119 259.635 717.676 259.856 719.556C206.616 719.556 153.265 719.556 100.024 719.667C97.1524 719.667 96.2687 719.003 96.6001 716.239C96.9315 714.359 96.7106 712.479 96.7106 710.599Z" fill="#FEFEFE"/>
<path d="M268.141 719.667C269.135 718.45 270.46 718.892 271.675 718.892C281.506 718.892 291.447 718.892 301.278 718.892C301.278 719.114 301.278 719.335 301.278 719.556C290.232 719.667 279.186 719.667 268.141 719.667Z" fill="#FEFEFE"/>
<path d="M427.641 718.893C436.588 718.893 445.646 718.782 454.593 718.893C455.918 718.893 457.354 718.34 458.459 719.667C448.186 719.667 437.914 719.667 427.641 719.667C427.641 719.446 427.641 719.114 427.641 718.893Z" fill="#FEFEFE"/>
<path d="M427.641 718.893C427.641 719.114 427.641 719.335 427.641 719.667C425.874 719.667 424.107 719.667 422.339 719.667C423.996 718.229 425.874 719.114 427.641 718.893Z" fill="#EEE9E9"/>
<path d="M301.278 719.667C301.278 719.445 301.278 719.224 301.278 719.003C302.382 719.003 303.487 718.561 304.371 719.667C303.266 719.667 302.272 719.667 301.278 719.667Z" fill="#EEE9E9"/>
<path d="M633.482 673.959C638.563 673.738 643.313 675.507 648.284 676.281C648.284 676.834 648.284 677.277 648.284 677.829C638.232 679.82 628.07 680.705 617.908 681.479C604.653 682.585 591.288 683.359 577.922 683.691C564.115 684.133 550.197 684.907 536.39 685.128C518.717 685.46 501.154 686.566 483.481 686.124C482.487 686.124 481.493 686.124 480.499 686.124C479.615 686.124 479.173 686.677 479.063 687.561C475.528 687.561 471.993 687.561 468.569 687.561C467.465 686.234 466.029 686.787 464.703 686.787C455.756 686.787 446.699 686.787 437.752 686.787C435.984 687.008 434.107 686.013 432.45 687.561C393.127 687.561 353.693 687.561 314.371 687.561C313.597 686.455 312.382 686.898 311.278 686.898C301.447 686.898 291.506 686.898 281.675 686.898C280.46 686.898 279.135 686.455 278.141 687.672C275.379 687.672 272.618 687.672 269.856 687.672C269.635 685.792 268.089 686.234 266.984 686.234C255.607 685.902 244.23 686.124 232.853 685.681C216.726 685.018 200.71 684.686 184.583 684.133C168.898 683.58 153.213 682.806 137.528 681.811C127.256 681.147 116.873 680.484 106.71 678.714C106.71 678.161 106.71 677.719 106.71 677.166C111.902 675.839 117.425 675.95 122.506 674.18C125.378 675.95 128.471 676.613 131.784 676.502C141.946 676.392 152.108 676.281 162.271 676.502C167.793 676.613 171.991 674.844 175.084 670.31C176.961 671.968 179.281 671.305 181.159 670.973C187.897 669.867 194.635 670.641 201.373 670.31C201.704 677.166 201.704 677.166 208.442 677.166C214.517 677.166 214.517 677.166 214.959 669.535C247.323 667.987 279.576 666.992 311.941 666.55C311.941 668.54 311.941 670.531 312.051 672.521C312.051 673.517 312.051 674.733 313.376 674.844C317.242 674.954 321.44 676.06 324.754 674.291C326.742 673.295 325.306 669.425 325.527 666.881C325.527 666.55 325.637 666.107 325.637 665.775C333.038 666.107 340.328 665.333 347.729 666.218C346.956 668.319 348.06 668.761 349.938 668.761C353.252 668.651 356.565 668.54 359.879 668.761C362.53 668.982 364.076 667.987 365.181 665.775C368.826 665.775 372.361 665.775 376.006 665.886C375.122 666.66 374.239 667.324 373.465 668.098C372.25 669.314 370.593 670.531 370.925 672.411C371.256 674.512 373.355 674.844 375.012 675.175C386.389 677.277 397.324 676.724 407.376 670.199C408.701 669.314 410.027 668.43 411.905 669.314C416.323 671.415 420.741 670.973 425.049 669.093C426.043 668.872 426.595 669.535 427.258 670.199C432.008 674.954 437.752 678.161 443.716 681.037C446.367 682.253 449.129 682.806 452.111 682.585C455.314 682.364 456.971 680.594 457.303 677.387C457.744 672.964 455.867 669.425 453.547 665.997C469.122 666.107 484.586 665.775 500.16 666.771C501.486 669.757 500.712 672.964 500.823 675.95C500.933 678.935 501.154 680.926 505.02 679.82C506.788 679.267 508.776 679.599 510.654 679.71C513.194 679.931 513.857 678.825 513.857 676.392C513.746 673.185 513.967 669.867 513.967 666.66C521.037 667.987 528.106 667.434 535.286 667.545C536.501 667.545 537.826 667.877 538.71 666.66C539.594 667.434 539.262 669.535 540.698 669.535C546 669.646 551.412 670.641 556.714 668.982C566.877 668.54 576.928 669.535 586.98 669.978C598.136 670.531 609.292 671.968 620.448 672.079C620.78 677.498 619.233 677.387 626.082 677.387C627.407 677.387 628.843 677.277 630.169 677.387C632.599 677.498 633.482 676.281 633.482 673.959Z" fill="#D6D6E1"/>
<path d="M18.3035 144.39C-43.1804 91.6727 64.8822 43.4978 126.599 26H841V628C598.208 624.649 764.145 486.156 647.116 481.688C530.087 477.221 337.95 526.364 304.763 420.26C271.575 314.156 109.132 311.922 44.504 256.078C-20.124 200.234 95.1584 210.286 18.3035 144.39Z" fill="#9EC6FF"/>
<path d="M18.3035 118.39C-43.1804 65.6727 64.8822 17.4978 126.599 0H841V602C598.208 598.649 764.145 460.156 647.116 455.688C530.087 451.221 337.95 500.364 304.763 394.26C271.575 288.156 109.132 285.922 44.504 230.078C-20.124 174.234 95.1584 184.286 18.3035 118.39Z" fill="#CEE2FF"/>
<path d="M594.049 248.637C600.787 250.96 607.083 254.056 612.164 259.475C623.32 271.308 623.983 290.993 613.489 303.489C604.542 313.995 593.165 318.529 579.689 315.322C565.993 312.115 556.825 303.268 553.953 289.334C550.197 270.755 560.47 254.83 578.143 249.522C578.695 249.301 579.358 249.301 579.8 248.748C584.55 248.637 589.299 248.637 594.049 248.637ZM616.693 282.146C617.355 265.557 602.223 252.176 587.421 252.287C570.521 252.508 557.156 265.447 557.156 282.146C557.156 298.734 570.301 311.562 586.759 312.115C602.886 312.557 617.797 297.96 616.693 282.146Z" fill="#4B719E"/>
<path d="M253.287 390.19C266.432 389.305 279.576 389.858 292.61 389.305C312.603 388.531 332.596 387.978 352.589 387.868C352.478 389.305 353.251 390.522 353.914 391.738C365.844 413.524 377.663 435.421 389.592 457.317C353.472 457.317 317.353 457.317 281.233 457.317C272.617 440.508 264.002 423.809 255.386 406.999C254.944 406.115 254.613 405.119 253.619 404.677C251.41 400.032 249.311 395.277 246.881 390.301C249.311 390.19 251.299 390.19 253.287 390.19ZM310.615 424.141C313.155 424.141 315.585 424.141 318.126 424.141C319.672 424.141 320.998 423.809 320.998 422.039C321.108 420.27 320.004 419.054 318.347 418.943C313.266 418.832 308.185 418.832 302.993 418.943C301.005 418.943 300.674 420.491 300.674 422.15C300.674 423.809 301.668 424.251 303.104 424.251C305.644 424.03 308.074 424.141 310.615 424.141Z" fill="#B2CDF3"/>
<path d="M281.123 457.207C317.243 457.207 353.362 457.207 389.482 457.207C407.486 457.207 425.491 457.207 443.496 457.207C450.565 457.207 457.524 457.207 464.593 457.207C471.441 457.207 478.179 457.317 485.028 457.317C485.028 463.399 485.028 469.592 485.028 475.675C466.471 475.675 447.914 475.785 429.467 475.785C421.735 475.785 413.893 475.896 406.161 476.007C397.324 476.007 388.598 476.007 379.762 476.007C364.96 476.007 350.269 476.007 335.468 476.007C327.736 476.007 320.004 476.007 312.272 476.007C283.111 476.007 253.951 476.007 224.79 476.007C217.058 476.007 209.326 476.007 201.594 476.007C198.501 476.007 195.298 475.896 192.205 476.007C190.106 476.117 189.222 475.343 189.333 473.242C189.443 468.818 189.443 464.505 189.333 460.082C189.222 457.649 190.437 457.207 192.536 457.207C197.286 457.317 202.035 457.207 206.785 457.207C214.517 457.207 222.36 457.207 230.092 457.207C237.824 457.538 245.556 457.538 253.288 457.207C262.677 457.207 271.955 457.207 281.123 457.207Z" fill="#D2B283"/>
<path d="M215.069 669.535C214.627 677.166 214.627 677.166 208.552 677.166C201.704 677.166 201.704 677.166 201.483 670.31C201.483 668.651 201.593 667.103 201.593 665.444C201.593 606.5 201.593 547.446 201.593 488.503C201.593 486.844 201.704 485.296 201.814 483.637C209.325 483.637 216.726 483.748 224.237 483.748C223.906 489.83 223.906 496.023 223.464 502.105C222.249 521.569 221.365 541.032 220.371 560.496C219.488 578.079 218.935 595.773 217.831 613.357C217.499 619.107 217.389 624.858 217.057 630.608C216.284 643.547 215.732 656.486 215.069 669.535Z" fill="#E0B680"/>
<path d="M633.482 673.959C633.482 676.281 632.599 677.387 630.168 677.166C628.843 676.945 627.407 677.166 626.082 677.166C619.233 677.166 620.78 677.277 620.448 671.858C619.896 660.136 619.454 648.303 618.902 636.58C617.797 614.352 616.472 592.124 615.257 569.896C614.594 558.395 614.152 546.893 613.6 535.392C612.716 518.14 611.722 500.889 610.838 483.637C618.349 483.637 625.861 483.637 633.372 483.637C633.372 545.456 633.372 607.274 633.372 669.204C633.261 670.752 633.372 672.3 633.482 673.959Z" fill="#E0B680"/>
<path d="M446.588 264.341C447.472 263.124 448.466 261.797 449.35 260.581C457.192 262.571 464.151 266.221 469.453 272.524C469.895 273.077 470.668 273.188 471.331 273.52C471.331 274.626 471.441 275.621 472.877 275.731C473.098 276.616 473.098 277.501 473.54 278.275C482.266 294.089 481.382 311.009 479.284 328.15C478.29 335.781 477.406 343.522 479.726 351.153C480.72 354.36 481.603 357.677 484.144 360.11C484.254 360.774 484.365 361.548 485.248 361.769C485.359 361.769 485.58 361.437 485.69 361.327C485.801 360.331 485.138 360.11 484.365 360C484.254 359.225 484.254 358.451 483.813 357.788C478.511 348.277 479.505 338.103 480.72 327.818C482.045 317.202 483.039 306.475 481.051 295.858C479.726 288.67 477.848 281.482 472.988 275.621C472.877 274.626 472.435 273.851 471.441 273.409C466.25 265.557 458.96 261.023 449.681 259.917C452.111 256.71 455.425 254.941 459.401 254.83C463.047 256.931 466.471 259.475 470.558 260.802C470.889 262.461 471.883 263.456 473.65 263.788C473.871 264.009 474.203 264.23 474.424 264.562C474.645 264.783 474.865 265.004 475.197 265.336C475.418 265.557 475.639 265.889 475.97 266.11C476.301 267.88 477.627 268.875 478.952 269.87C486.464 282.035 488.783 295.416 487.899 309.35C487.237 319.082 486.132 328.814 486.574 338.545C486.905 344.407 487.789 350.157 491.765 355.023C491.876 355.908 492.318 356.461 493.201 356.571C494.085 360 501.928 367.851 503.916 367.962C500.713 364.423 496.957 360.442 493.312 356.35C493.201 355.465 492.76 354.912 491.765 354.802C491.765 352.037 490.109 349.825 489.446 347.282C486.353 335.228 488.231 323.063 489.114 311.12C489.998 298.623 488.673 286.68 483.481 275.289C482.598 273.188 481.935 270.423 479.063 269.649C479.063 267.659 478.069 266.331 476.081 265.889C475.86 265.668 475.528 265.447 475.307 265.115C475.086 264.894 474.865 264.673 474.534 264.341C474.313 264.12 474.092 263.788 473.761 263.567C473.43 261.797 472.435 260.913 470.779 260.581C468.68 257.706 465.256 256.71 462.384 254.83C471.552 255.273 477.958 260.581 483.26 267.327C489.667 275.4 492.649 284.8 493.975 294.974C495.631 308.244 495.521 321.515 495.3 334.785C495.079 344.517 498.503 352.369 505.241 359.004C508.776 362.543 512.2 366.192 515.072 370.395C517.392 373.823 519.159 377.583 518.828 382.007C518.607 382.007 518.386 382.007 518.165 382.007C518.054 381.122 517.833 380.348 516.839 380.016C516.397 379.905 516.177 380.237 516.177 380.68C516.397 381.675 517.171 382.007 518.054 382.117C518.054 382.891 517.944 383.776 518.828 384.218C519.159 389.305 518.275 394.061 514.63 398.042C513.967 394.171 513.636 390.19 510.654 387.315C510.543 386.319 510.101 385.545 509.107 385.103C508.776 383.444 507.782 382.338 506.125 382.007C506.014 381.675 505.904 381.343 505.683 381.011C505.573 381.122 505.352 381.232 505.462 381.232C505.683 381.564 505.794 381.785 506.014 382.117C506.346 383.776 507.34 384.882 508.997 385.103C508.997 386.209 509.107 387.204 510.543 387.315C511.537 391.407 513.415 395.167 513.636 399.369C511.979 401.249 510.764 403.792 507.671 403.792C506.898 401.802 506.125 399.811 505.241 397.931C501.044 388.974 497.288 379.684 491.765 371.39C491.545 370.837 491.103 370.616 490.55 370.505C489.556 369.731 488.452 368.957 487.458 368.183C484.696 364.091 480.278 363.096 476.081 361.658C470.558 351.595 469.784 340.868 471.552 329.809C471.552 329.588 471.552 329.256 471.662 329.035C472.656 328.15 472.877 326.934 473.098 325.717C474.865 316.428 473.54 307.47 469.564 298.955C469.232 298.181 468.901 297.407 468.68 296.633C465.477 289.555 462.273 282.477 457.413 276.284C455.977 272.856 453.105 270.534 450.896 267.659C449.571 266.331 448.798 264.562 446.588 264.341ZM487.237 363.87C487.458 364.091 487.679 364.423 488.01 364.644C488.231 364.865 488.452 365.197 488.783 365.418C489.115 365.64 489.335 365.75 489.667 365.971C489.667 365.971 489.777 365.75 489.888 365.75C489.556 365.64 489.225 365.529 488.894 365.308C488.673 365.087 488.341 364.865 488.12 364.534C487.789 364.312 487.568 364.091 487.237 363.87C487.237 363.649 487.016 363.538 486.905 363.428C487.016 363.649 487.126 363.76 487.237 363.87ZM499.277 375.15C499.608 375.371 499.829 375.482 500.16 375.703C500.16 375.703 500.271 375.482 500.381 375.482C500.05 375.371 499.718 375.261 499.387 375.04C497.951 371.943 495.521 369.842 492.428 368.625C494.527 371.058 496.073 374.044 499.277 375.15ZM507.671 370.505C507.34 370.284 507.119 370.174 506.788 369.952C506.788 369.952 506.677 370.174 506.567 370.174C506.898 370.284 507.23 370.395 507.561 370.616C508.997 374.044 512.2 375.924 514.962 378.136C513.194 374.929 510.985 372.164 507.671 370.505Z" fill="#4B719E"/>
<path d="M182.374 617.559C180.938 630.498 179.502 643.326 178.066 656.265C178.066 656.707 177.734 657.15 177.514 657.592C174.2 663.674 169.008 665.554 162.27 665.222C151.998 664.78 141.725 664.78 131.563 665.222C125.046 665.554 120.186 663.564 116.541 658.255C114.332 649.298 113.669 640.008 112.233 630.94C111.46 626.517 110.466 622.093 110.576 617.559C134.435 617.559 158.404 617.559 182.374 617.559Z" fill="#4B719E"/>
<path d="M485.027 475.675C485.027 469.592 485.027 463.399 485.027 457.317C499.276 457.207 513.636 457.207 527.885 457.096C532.635 457.096 537.384 457.096 542.134 457.096C549.645 457.096 557.156 457.096 564.667 457.096C574.056 457.096 583.555 457.207 592.944 457.207C607.525 457.207 622.105 457.428 636.685 457.207C639.999 457.207 641.104 458.091 640.883 461.409C640.552 465.058 640.662 468.708 640.883 472.246C641.104 475.343 639.889 476.228 637.017 475.896C635.802 475.785 634.476 475.896 633.261 476.007C625.64 476.007 618.018 476.007 610.397 476.007C582.561 476.007 554.836 476.006 527.001 475.896C522.583 475.896 518.165 475.896 513.746 475.896C506.125 475.896 498.614 475.896 490.992 475.896C489.998 475.896 489.004 475.896 488.01 475.896C487.016 475.896 486.021 475.785 485.027 475.675Z" fill="#E0B680"/>
<path d="M131.563 550.764C130.348 540.921 129.796 530.969 130.127 521.016C130.238 516.813 130.459 512.611 130.9 508.409C131.342 503.764 133.883 500.889 137.638 500.225C139.627 503.432 141.946 506.418 143.493 509.846C147.138 517.809 149.789 526.103 151.777 534.839C153.544 542.691 153.986 550.543 155.643 558.173C154.097 558.726 153.655 556.404 151.998 557.178C152.661 559.611 155.422 560.496 155.753 563.371C156.747 572.992 155.753 582.613 155.422 592.234C155.312 594.557 156.306 597.764 153.434 599.533C153.434 598.206 153.213 596.99 151.446 596.768C151.556 598.427 152.44 598.98 153.434 599.644C153.434 599.865 153.434 600.086 153.434 600.307C145.149 600.307 136.976 600.307 128.691 600.307C124.494 594.557 128.029 589.027 130.017 583.387C129.685 583.277 129.354 583.277 129.023 583.166C127.808 585.931 126.593 588.696 125.157 592.124C121.953 583.719 120.076 575.536 119.634 567.241C119.523 566.357 118.419 565.251 119.634 564.477C120.738 563.813 121.732 564.809 122.727 565.472C123.389 565.914 124.052 566.688 124.604 567.241C130.017 572.439 132.889 579.406 137.197 585.378C138.853 587.7 140.51 589.58 143.603 588.364C146.806 586.926 147.248 584.161 146.475 581.065C145.702 577.968 144.266 575.093 142.057 572.881C135.761 566.688 132.889 559.058 131.563 550.764ZM150.672 554.634C149.126 552.312 147.58 549.879 144.045 548.11C145.923 551.538 148.021 553.307 150.672 554.634ZM149.899 532.849C148.905 530.416 147.359 528.536 144.155 527.098C145.702 530.194 147.58 531.743 149.899 532.849ZM137.859 519.799C139.295 523.117 140.289 524.002 142.83 524.223C141.394 522.453 140.179 520.794 137.859 519.799ZM148.242 593.008C148.574 594.667 149.236 595.441 150.893 595.552C150.562 593.893 149.899 593.119 148.242 593.008ZM143.603 546.23C143.161 545.677 142.94 545.234 142.609 545.013C142.388 544.903 141.725 545.013 141.725 545.124C141.504 545.787 141.836 546.23 142.498 546.451C142.719 546.672 143.051 546.34 143.603 546.23ZM146.917 591.571C147.027 591.571 147.138 591.46 147.138 591.46C147.138 591.35 147.138 591.239 147.138 591.128C147.027 591.239 146.917 591.239 146.806 591.35C146.806 591.35 146.806 591.46 146.917 591.571Z" fill="#84ADEA"/>
<path d="M446.588 264.341C448.797 264.562 449.57 266.331 450.675 267.769C452.884 270.644 455.756 272.967 457.192 276.395C455.535 276.506 453.989 276.616 452.332 276.727C448.466 276.284 445.704 278.717 443.164 281.04C436.978 286.79 434.769 294.421 433.775 302.494C433.664 303.6 434.217 305.037 433.112 305.701C428.694 308.355 430.903 311.672 432.229 314.769C432.891 316.317 434.548 317.534 434.99 319.192C436.868 326.602 440.734 332.684 446.698 337.44C446.698 337.771 446.698 338.103 446.698 338.435C446.698 340.978 446.588 343.411 446.588 345.955C446.809 354.138 443.274 360.11 435.874 363.759C431.234 364.976 426.153 365.308 422.95 369.842C422.287 371.058 421.514 372.385 420.851 373.602C418.532 377.141 416.212 380.679 413.893 384.218C413.23 385.103 413.119 386.762 411.352 386.43C409.695 378.247 411.904 370.948 416.433 364.312C422.177 355.908 424.276 346.729 424.276 336.665C424.165 324.169 424.386 311.562 424.938 299.065C425.822 283.473 432.449 271.418 446.588 264.341Z" fill="#4B719E"/>
<path d="M230.091 457.206C222.359 457.206 214.517 457.206 206.785 457.206C206.785 431.661 206.785 406.115 206.674 380.569C206.674 377.583 207.337 376.367 210.54 376.477C217.057 376.809 223.574 376.588 230.091 376.698C230.091 403.461 230.091 430.333 230.091 457.206ZM221.034 449.686C221.255 449.465 221.586 449.133 221.807 448.912C223.906 446.479 223.906 443.272 221.476 441.724C219.266 440.286 217.057 439.955 215.842 443.051C215.621 443.272 215.4 443.493 215.29 443.715C212.529 445.816 213.081 447.475 215.953 448.912C217.168 451.677 219.156 450.46 221.034 449.686ZM222.47 401.138C222.47 396.162 222.359 391.075 222.47 386.098C222.47 383.444 221.365 382.117 218.714 382.117C216.063 382.117 214.406 383.112 214.406 385.988C214.406 396.162 214.406 406.336 214.406 416.51C214.406 419.496 216.063 420.27 218.714 420.27C221.476 420.27 222.58 419.275 222.58 416.51C222.47 411.423 222.47 406.225 222.47 401.138Z" fill="#4B719E"/>
<path d="M230.091 457.207C230.091 430.334 230.091 403.461 230.091 376.698C237.05 376.588 244.119 376.588 251.078 376.477C252.956 376.477 253.398 377.251 253.398 378.91C253.287 382.67 253.287 386.43 253.287 390.19C251.299 390.19 249.311 390.19 246.77 390.19C249.09 395.277 251.299 399.922 253.508 404.567C253.508 422.15 253.398 439.623 253.398 457.207C245.666 457.428 237.934 457.538 230.091 457.207ZM245.776 401.581C245.776 396.273 245.776 391.075 245.776 385.767C245.776 382.891 244.23 382.228 241.689 382.228C239.149 382.228 237.713 383.002 237.713 385.877C237.823 396.162 237.823 406.447 237.713 416.731C237.713 419.607 239.259 420.27 241.8 420.27C244.34 420.27 245.887 419.496 245.776 416.621C245.666 411.644 245.776 406.557 245.776 401.581ZM245.114 445.705C244.893 443.715 244.009 442.167 241.689 442.277C239.149 442.388 238.265 443.936 238.376 446.258C238.376 448.691 240.032 449.687 242.021 449.576C243.899 449.355 245.334 448.138 245.114 445.705Z" fill="#3D7DBD"/>
<path d="M128.581 600.197C136.865 600.197 145.039 600.197 153.324 600.197C154.318 600.197 155.312 600.197 156.306 600.197C158.847 600.197 161.387 600.197 163.817 600.197C165.143 600.197 166.468 600.197 167.683 600.086C170.555 600.086 173.427 600.086 176.299 600.197C181.048 600.307 183.479 602.851 183.368 607.496C183.368 610.371 183.147 613.246 182.374 616.011C158.184 616.011 133.994 616.011 109.914 616.011C109.582 613.91 109.03 611.919 108.809 609.818C108.036 602.961 110.245 600.529 116.983 600.086C120.297 600.086 123.611 600.086 126.814 600.197C127.587 600.307 128.139 600.307 128.581 600.197Z" fill="#4B719E"/>
<path d="M320.667 329.92C314.37 329.92 308.185 329.92 301.889 329.92C297.912 329.92 296.587 328.703 296.476 324.943C296.366 319.414 296.366 313.884 296.476 308.355C296.476 305.258 298.023 303.489 301.337 303.489C314.26 303.6 327.184 303.6 340.107 303.489C343.31 303.489 344.857 305.037 344.967 308.023C345.078 313.774 345.078 319.524 344.967 325.385C344.857 328.482 343.2 330.03 339.886 330.03C333.369 329.809 327.073 329.92 320.667 329.92ZM337.898 311.562C337.898 311.341 337.898 311.009 337.898 310.788C325.969 310.788 313.929 310.788 301.999 310.788C301.999 311.009 301.999 311.341 301.999 311.562C313.929 311.562 325.969 311.562 337.898 311.562ZM337.898 322.842C337.898 322.621 337.898 322.4 337.898 322.178C328.62 322.178 319.452 322.178 310.173 322.178C310.173 322.4 310.173 322.621 310.173 322.842C319.452 322.842 328.73 322.842 337.898 322.842ZM310.615 316.538C310.615 316.649 310.725 316.87 310.725 316.981C319.452 316.981 328.288 316.981 337.014 316.981C337.014 316.87 337.014 316.649 337.014 316.538C328.178 316.538 319.341 316.538 310.615 316.538Z" fill="#4B719E"/>
<path d="M564.667 457.096C557.156 457.096 549.645 457.096 542.134 457.096C541.913 456.322 541.582 455.548 541.361 454.884C541.14 454.331 540.919 453.889 540.808 453.336C540.808 452.341 540.698 451.345 540.698 450.461C540.698 450.239 540.698 450.018 540.698 449.797C540.587 448.802 540.919 447.585 540.146 446.701C540.146 446.258 540.035 445.705 540.035 445.263C540.035 444.268 540.035 443.383 540.035 442.388C540.146 437.743 540.256 433.098 540.256 428.564C548.761 430.334 557.266 429.449 565.772 429.338C571.957 430.334 574.94 434.757 574.498 442.277C574.166 443.272 573.946 444.157 573.614 445.152C573.393 445.374 573.062 445.595 572.841 445.927C572.068 447.143 571.405 448.359 570.632 449.465C570.411 449.576 570.19 449.687 569.969 449.687C568.644 451.124 566.545 451.788 565.551 453.557C565.551 453.999 565.44 454.442 565.44 454.884C564.667 455.437 564.778 456.322 564.667 457.096ZM570.08 442.388C571.847 437.854 570.742 435.2 566.324 433.651C566.324 436.527 566.324 439.402 566.324 442.167C566.324 443.715 566.324 445.263 566.324 447.254C568.533 445.927 569.638 444.378 570.08 442.388Z" fill="#4B719E"/>
<path d="M128.581 600.197C128.029 600.197 127.587 600.197 127.035 600.307C121.843 589.249 118.64 577.526 117.756 565.472C116.541 565.251 116.431 565.914 115.989 566.357C115.547 566.91 114.995 567.131 114.332 567.02C110.245 558.284 111.46 549.658 115.105 541.253C117.314 535.945 119.524 535.724 123.611 539.816C126.814 543.023 128.471 547.336 131.453 550.764C132.778 559.058 135.65 566.578 141.836 572.771C144.045 574.983 145.371 577.858 146.254 580.954C147.027 584.051 146.696 586.816 143.382 588.253C140.4 589.58 138.633 587.59 136.976 585.267C132.668 579.296 129.686 572.329 124.384 567.131C123.721 566.467 123.169 565.804 122.506 565.361C121.622 564.698 120.628 563.703 119.413 564.366C118.309 565.03 119.413 566.136 119.413 567.131C119.965 575.536 121.733 583.609 124.936 592.013C126.372 588.696 127.587 585.82 128.802 583.056C129.133 583.166 129.465 583.166 129.796 583.277C128.029 588.917 124.384 594.446 128.581 600.197Z" fill="#355E8D"/>
<path d="M310.836 373.602C306.97 373.602 303.104 373.602 299.127 373.602C294.82 373.602 292.831 371.833 292.611 367.63C292.39 363.538 292.39 359.336 292.611 355.244C292.831 350.931 294.599 349.051 299.017 349.051C306.749 348.941 314.592 348.941 322.324 349.051C326.742 349.162 328.509 351.263 328.62 355.797C328.62 359.778 328.62 363.87 328.62 367.851C328.62 371.722 326.521 373.713 322.544 373.823C318.568 373.602 314.702 373.602 310.836 373.602ZM322.103 356.018C322.103 355.797 322.103 355.466 322.103 355.244C313.929 355.244 305.755 355.244 297.581 355.244C297.581 355.466 297.581 355.797 297.581 356.018C305.644 356.018 313.929 356.018 322.103 356.018ZM322.103 367.298C322.103 366.856 322.103 366.524 322.103 366.082C315.917 366.303 309.731 365.64 303.546 367.298C309.731 367.298 315.917 367.298 322.103 367.298ZM303.877 360.884C303.877 360.995 303.877 361.216 303.877 361.327C309.842 361.327 315.807 361.327 321.771 361.327C321.771 361.216 321.771 360.995 321.771 360.884C315.807 360.884 309.842 360.884 303.877 360.884Z" fill="#84ADEA"/>
<path d="M411.463 386.209C413.23 386.651 413.451 384.993 414.003 383.997C416.433 380.569 418.642 376.92 420.962 373.381C420.852 374.376 420.962 375.371 420.741 376.367C418.201 384.882 415.66 393.287 413.009 401.802C412.236 404.456 411.352 407 411.242 409.764C410.91 419.385 413.23 428.564 415.771 437.633C413.782 438.628 411.684 439.623 409.695 440.618C403.62 432.656 395.999 428.564 385.726 430.887C391.691 419.717 398.539 409.101 404.946 398.263C407.376 394.393 410.69 390.854 411.463 386.209Z" fill="#EEE9E9"/>
<path d="M258.59 339.652C255.165 339.652 251.852 339.762 248.428 339.652C243.567 339.541 240.916 336.997 240.806 332.242C240.696 329.035 240.696 325.717 240.806 322.51C241.027 318.087 243.457 315.433 247.875 315.322C255.165 315.101 262.456 315.101 269.635 315.322C273.833 315.433 276.373 318.197 276.484 322.289C276.594 325.717 276.594 329.035 276.484 332.463C276.373 336.776 273.722 339.43 269.415 339.652C269.194 339.652 268.862 339.652 268.641 339.652C265.438 339.652 262.014 339.652 258.59 339.652ZM270.85 322.068C270.85 321.847 270.85 321.515 270.85 321.294C262.677 321.294 254.503 321.294 246.329 321.294C246.329 321.515 246.329 321.847 246.329 322.068C254.503 322.068 262.677 322.068 270.85 322.068ZM270.961 333.459C270.961 333.016 270.961 332.574 270.961 332.242C264.554 332.463 258.037 331.91 251.631 333.459C258.037 333.459 264.554 333.459 270.961 333.459ZM252.404 327.155C252.404 327.376 252.404 327.708 252.404 327.929C258.369 327.929 264.333 327.929 270.188 327.929C270.188 327.708 270.188 327.376 270.188 327.155C264.223 327.155 258.258 327.155 252.404 327.155Z" fill="#3D7DBD"/>
<path d="M163.817 600.307C161.276 600.307 158.736 600.307 156.306 600.307C157.3 592.677 155.422 584.604 159.951 577.526C158.404 576.752 158.404 578.964 157.079 578.3C157.079 576.752 157.079 574.983 157.079 573.213C157.41 561.049 156.527 549.105 153.986 537.161C151.225 523.891 147.138 511.063 138.964 500.004C142.83 500.004 144.708 502.769 146.475 505.423C153.876 516.482 158.404 528.646 161.497 541.474C163.265 550.543 164.701 559.611 165.474 568.9C166.357 579.627 166.689 590.023 163.817 600.307ZM160.282 576.31C163.375 573.103 163.375 573.103 163.154 569.785C162.381 572.439 160.503 573.545 160.282 576.31Z" fill="#84ADEA"/>
<path d="M116.431 658.256C120.076 663.564 125.046 665.444 131.453 665.223C141.725 664.78 151.998 664.78 162.16 665.223C168.898 665.444 174.089 663.674 177.403 657.592C177.293 662.016 177.072 666.329 174.973 670.31C171.88 674.844 167.572 676.613 162.16 676.503C151.998 676.281 141.836 676.392 131.674 676.503C128.25 676.503 125.267 675.95 122.395 674.18C117.204 670.089 116.762 664.227 116.431 658.256Z" fill="#244D7D"/>
<path d="M163.817 600.307C166.579 590.023 166.358 579.627 165.474 569.011C164.701 559.721 163.265 550.653 161.498 541.585C163.486 540.147 165.253 538.378 167.794 537.714C171.439 536.719 173.427 538.046 173.537 541.806C173.758 546.893 171.991 551.648 170.886 556.514C170.003 560.274 169.119 564.034 168.456 567.905C168.125 569.453 168.456 571.112 168.456 573.434C171.107 571.444 173.316 569.564 175.636 568.126C178.398 566.467 181.822 563.924 184.583 566.467C187.345 568.9 185.246 572.66 183.92 575.535C179.723 584.604 173.648 592.455 167.683 600.307C166.468 600.197 165.143 600.307 163.817 600.307Z" fill="#355E8D"/>
<path d="M443.496 457.207C425.491 457.207 407.486 457.207 389.482 457.207C377.552 435.31 365.733 413.524 353.804 391.628C353.141 390.411 352.479 389.195 352.479 387.757C354.909 387.315 356.565 388.089 357.78 390.522C365.513 404.898 373.355 419.164 381.308 433.541C381.639 434.204 382.192 434.757 382.633 435.31C382.854 436.748 383.517 438.075 384.622 439.07C385.395 442.72 387.935 445.484 389.371 448.691C389.813 449.687 390.697 450.239 391.801 450.129C394.231 450.018 396.772 450.461 399.202 449.797C410.469 449.687 421.846 449.576 433.112 449.465C434.107 449.465 435.101 449.576 436.095 449.576C444.048 450.018 443.716 448.138 443.496 457.207ZM403.952 455.658C404.946 455.658 405.94 455.658 406.934 455.658C408.149 455.658 408.922 454.995 408.922 453.778C408.922 452.562 408.039 452.009 406.934 452.009C404.835 452.009 402.626 452.009 400.528 452.009C399.312 452.009 398.65 452.783 398.65 453.999C398.539 455.327 399.423 455.769 400.528 455.769C401.632 455.658 402.847 455.658 403.952 455.658ZM420.189 455.769C420.741 455.769 420.962 455.769 421.183 455.769C422.73 455.548 425.27 456.543 425.27 453.999C425.38 451.345 422.84 452.23 421.294 452.119C421.073 452.119 420.741 452.119 420.52 452.119C418.643 452.562 415.439 450.903 415.329 453.889C415.329 456.985 418.753 455.105 420.189 455.769Z" fill="#355E8D"/>
<path d="M514.63 397.931C518.275 394.061 519.159 389.305 518.827 384.108C518.938 383.555 518.938 383.113 519.048 382.56C522.251 388.974 524.129 395.83 524.792 402.908C526.228 415.957 527.222 429.007 527.222 442.056C524.46 442.056 521.699 442.056 518.938 442.056C517.502 428.564 512.531 416.068 507.561 403.682C510.653 403.682 511.758 401.138 513.525 399.258C513.967 398.816 514.298 398.374 514.63 397.931Z" fill="#84ADEA"/>
<path d="M114.332 567.131C114.995 567.131 115.547 566.91 115.989 566.468C116.32 566.025 116.541 565.251 117.756 565.583C118.64 577.747 121.843 589.359 127.035 600.418C123.721 600.418 120.407 600.418 117.204 600.307C110.577 591.903 110.908 582.503 113.448 572.882C113.89 570.891 115.326 569.232 114.332 567.131Z" fill="#84ADEA"/>
<path d="M384.732 439.181C383.627 438.185 382.965 436.858 382.744 435.421C383.296 433.651 384.842 432.435 385.836 430.886C396.109 428.564 403.731 432.766 409.806 440.618C407.928 442.056 406.271 443.715 403.841 444.378C402.847 443.493 401.853 442.498 400.748 441.724C395.888 438.296 390.697 435.974 384.732 439.181Z" fill="#D6D6E1"/>
<path d="M519.048 442.166C521.81 442.166 524.571 442.166 527.333 442.166C527.553 442.277 527.885 442.277 528.106 442.388C528.106 443.272 527.995 444.268 527.995 445.152C526.338 445.152 524.792 445.263 523.135 445.263C503.474 445.263 483.812 445.374 464.151 445.374C463.599 441.945 465.918 442.166 468.127 442.166C485.138 442.166 502.038 442.166 519.048 442.166Z" fill="#D6D6E1"/>
<path d="M224.237 483.637C216.726 483.637 209.326 483.526 201.815 483.526C201.815 481.093 201.704 478.55 201.704 476.117C209.436 476.117 217.168 476.117 224.9 476.117C224.569 478.55 225.121 481.204 224.237 483.637Z" fill="#BB9365"/>
<path d="M610.396 476.117C618.018 476.117 625.64 476.117 633.261 476.117C633.261 478.66 633.261 481.093 633.151 483.637C625.64 483.637 618.129 483.637 610.617 483.637C610.617 481.093 610.507 478.55 610.396 476.117Z" fill="#BB9365"/>
<path d="M139.075 500.115C147.248 511.173 151.335 524.002 154.097 537.272C156.527 549.105 157.521 561.159 157.19 573.324C157.19 575.093 157.19 576.752 157.19 578.411C158.626 579.074 158.626 576.863 160.062 577.637C155.422 584.714 157.411 592.787 156.416 600.418C155.422 600.418 154.428 600.418 153.434 600.418C153.434 600.197 153.434 599.975 153.434 599.754C156.416 597.985 155.422 594.667 155.422 592.456C155.754 582.834 156.637 573.213 155.754 563.592C155.422 560.717 152.661 559.832 151.998 557.399C153.655 556.514 154.097 558.837 155.643 558.394C153.986 550.653 153.545 542.801 151.777 535.06C149.789 526.324 147.138 518.14 143.493 510.067C141.947 506.639 139.627 503.653 137.639 500.446C138.081 500.225 138.522 500.225 139.075 500.115Z" fill="#355E8D"/>
<path d="M565.551 453.447C566.545 451.677 568.644 451.014 569.969 449.576C577.259 451.456 584.55 449.797 591.84 450.461C591.84 450.129 591.84 449.687 591.84 449.355C584.77 449.355 577.701 449.355 570.632 449.355C571.405 448.138 572.068 446.922 572.841 445.816C573.614 446.922 574.829 446.701 575.934 446.701C581.457 446.701 587.09 446.701 592.613 446.701C593.386 449.023 593.386 451.345 592.613 453.557C583.555 453.447 574.498 453.447 565.551 453.447Z" fill="#355E8D"/>
<path d="M110.024 616.122C134.215 616.122 158.405 616.122 182.484 616.122C182.484 616.564 182.374 617.006 182.374 617.449C158.405 617.449 134.436 617.449 110.356 617.559C110.245 617.117 110.135 616.675 110.024 616.122Z" fill="#244D7D"/>
<path d="M564.667 457.096C564.778 456.322 564.667 455.437 565.441 454.884C574.498 454.884 583.556 454.884 592.613 454.884C593.276 455.548 593.166 456.322 592.945 457.206C583.556 457.096 574.167 457.096 564.667 457.096Z" fill="#355E8D"/>
<path d="M573.614 445.042C573.946 444.047 574.167 443.162 574.498 442.167C579.8 442.167 585.102 442.167 590.404 442.167C592.613 442.167 593.938 442.609 592.613 445.152C586.317 445.152 580.021 445.152 573.614 445.042Z" fill="#355E8D"/>
<path d="M565.772 429.228C557.267 429.228 548.651 430.113 540.256 428.454C540.588 427.458 541.471 427.237 542.355 427.237C549.314 427.016 556.273 426.684 563.232 427.68C564.336 427.79 565.551 427.79 565.772 429.228Z" fill="#244D7D"/>
<path d="M548.872 400.254C554.616 401.028 557.267 405.783 554.726 409.985C553.07 412.75 550.971 415.404 552.296 418.943C552.517 419.496 552.407 419.938 551.744 420.049C551.081 420.16 550.639 419.717 550.639 419.275C550.419 416.952 549.977 414.63 551.192 412.308C555.168 405.451 555.168 405.451 548.872 400.254Z" fill="#B2CDF3"/>
<path d="M592.613 454.884C583.555 454.884 574.498 454.884 565.44 454.884C565.44 454.442 565.551 453.999 565.551 453.557C574.608 453.557 583.666 453.557 592.613 453.557C592.613 453.999 592.613 454.442 592.613 454.884Z" fill="#244D7D"/>
<path d="M449.791 259.917C459.18 261.023 466.36 265.557 471.552 273.409L471.441 273.52C470.778 273.188 470.005 272.967 469.563 272.525C464.261 266.221 457.302 262.572 449.46 260.581C449.57 260.36 449.681 260.139 449.791 259.917Z" fill="#4B719E"/>
<path d="M527.996 445.152C527.996 444.268 528.106 443.272 528.106 442.388C532.082 442.388 536.059 442.388 540.035 442.388C540.035 443.383 540.035 444.268 540.035 445.263C535.948 445.152 531.972 445.152 527.996 445.152Z" fill="#355E8D"/>
<path d="M573.615 445.042C579.911 445.042 586.207 445.152 592.503 445.152C592.503 445.595 592.503 446.037 592.613 446.59C587.09 446.59 581.457 446.59 575.934 446.59C574.83 446.59 573.725 446.811 572.841 445.705C573.173 445.595 573.394 445.374 573.615 445.042Z" fill="#244D7D"/>
<path d="M462.494 254.83C465.255 256.71 468.79 257.706 470.889 260.581L470.778 260.691C466.691 259.364 463.267 256.821 459.622 254.72C460.506 254.83 461.5 254.83 462.494 254.83Z" fill="#244D7D"/>
<path d="M519.048 382.56C518.938 383.112 518.938 383.555 518.827 384.108C518.054 383.555 518.054 382.781 518.054 382.007L518.165 381.896C518.386 381.896 518.606 381.896 518.827 381.896C518.938 382.117 518.938 382.338 519.048 382.56Z" fill="#244D7D"/>
<path d="M224.237 483.637C225.121 481.093 224.569 478.55 224.79 476.006C253.95 476.006 283.111 476.006 312.272 476.006C312.272 478.439 312.382 480.983 312.382 483.416C312.272 485.185 312.162 486.955 312.162 488.613C312.162 546.23 312.162 603.846 312.162 661.463C312.162 663.121 312.051 664.67 312.051 666.328C279.687 666.771 247.323 667.766 215.069 669.314C215.732 656.375 216.284 643.326 216.947 630.387C217.279 624.637 217.389 618.886 217.72 613.136C218.825 595.552 219.377 577.858 220.261 560.274C221.255 540.811 222.139 521.347 223.354 501.884C223.795 495.912 223.795 489.83 224.237 483.637Z" fill="#FEFEFE"/>
<path d="M610.397 476.117C610.507 478.55 610.618 481.093 610.728 483.526C611.612 500.778 612.606 518.03 613.49 535.282C614.042 546.783 614.594 558.284 615.147 569.785C616.362 592.013 617.577 614.241 618.792 636.47C619.455 648.192 619.896 660.025 620.338 671.747C609.071 671.637 598.026 670.199 586.87 669.646C576.818 669.204 566.656 668.208 556.604 668.651C556.162 667.766 555.61 666.992 555.168 665.997C545.337 644.1 535.507 622.204 525.566 600.418C521.7 591.903 518.275 583.166 513.747 574.983C513.747 560.606 513.857 546.119 513.857 531.743C514.409 531.079 514.962 530.416 515.403 529.642C520.374 520.905 522.362 511.284 524.13 501.552C525.676 493.037 526.007 484.522 527.001 475.896C554.837 476.006 582.672 476.117 610.397 476.117Z" fill="#FEFEFE"/>
<path d="M500.16 666.55C484.586 665.444 469.122 665.886 453.547 665.775C448.797 660.688 444.048 655.601 438.414 651.51C437.199 650.072 436.095 648.413 433.886 648.524C433.886 647.971 433.554 647.75 433.112 647.75C432.891 647.528 432.56 647.197 432.339 646.975C432.118 646.754 431.897 646.423 431.566 646.201C431.014 643.437 430.461 640.561 430.02 637.797C427.369 621.43 424.607 605.173 422.067 588.806C420.078 575.978 418.201 563.26 416.212 550.432C417.207 547.999 418.311 545.566 419.305 543.133C440.844 543.797 462.273 544.46 483.812 543.133C487.016 551.538 490.882 559.722 494.748 567.905C494.969 569.011 495.41 570.117 495.41 571.223C495.963 582.06 496.294 592.898 497.067 603.736C497.509 609.486 497.509 615.237 497.841 620.987C498.945 636.138 500.05 651.288 500.16 666.55Z" fill="#FEFEFE"/>
<path d="M335.468 476.006C350.269 476.006 364.96 476.006 379.761 476.006C379.651 480.54 379.872 485.075 380.534 489.609C379.319 490.493 378.104 491.267 376.779 492.152C370.151 496.465 363.414 500.557 357.78 506.086C357.007 506.307 356.455 506.86 356.123 507.524C353.583 509.293 351.595 511.616 349.717 514.159C349.385 514.933 348.944 515.707 348.723 516.592C347.066 523.117 349.385 529.199 351.263 535.171C357.338 554.192 365.954 571.997 374.68 589.912C376.116 592.787 377.773 595.663 378.215 598.87C371.035 614.684 364.076 630.608 356.786 646.422C353.804 653.058 351.263 659.804 347.508 666.107C340.107 665.333 332.817 666.107 325.416 665.665C325.195 658.366 326.3 651.178 326.631 643.99C327.736 624.526 328.73 604.952 329.614 585.488C330.497 567.794 331.05 550.211 332.154 532.517C332.485 526.987 332.596 521.458 332.927 516.039C333.59 505.202 334.142 494.253 334.695 483.416C335.136 480.983 335.357 478.55 335.468 476.006Z" fill="#FEFEFE"/>
<path d="M335.026 483.526C334.474 494.364 333.921 505.312 333.259 516.15C332.927 521.679 332.817 527.209 332.485 532.627C331.381 550.211 330.829 567.905 329.945 585.599C328.951 605.063 327.957 624.637 326.963 644.1C326.521 651.288 325.416 658.477 325.748 665.775C325.748 666.107 325.748 666.55 325.637 666.881C325.306 669.425 326.852 673.295 324.864 674.291C321.55 675.95 317.353 674.844 313.487 674.844C312.161 674.844 312.161 673.517 312.161 672.521C312.161 670.531 312.161 668.54 312.051 666.55C312.051 664.891 312.161 663.343 312.161 661.684C312.161 604.067 312.161 546.451 312.161 488.835C312.161 487.065 312.272 485.296 312.382 483.637C320.004 483.526 327.515 483.526 335.026 483.526Z" fill="#E0B680"/>
<path d="M500.16 666.55C500.05 651.288 498.945 636.138 498.062 620.877C497.73 615.126 497.62 609.376 497.288 603.625C496.515 592.787 496.184 581.95 495.631 571.112C495.521 570.006 495.19 568.9 494.969 567.794C496.294 566.246 495.852 564.366 495.521 562.818C494.085 555.961 495.742 548.884 494.085 542.027C493.533 530.858 492.98 519.689 492.428 508.409C492.428 507.082 492.428 505.644 492.428 504.317C492.097 497.35 491.765 490.493 491.434 483.526C498.835 483.526 506.346 483.526 513.746 483.526C513.857 499.562 513.857 515.707 513.967 531.743C513.967 546.119 513.857 560.606 513.857 574.983C513.857 587.147 513.857 599.312 513.857 611.477C513.857 613.357 513.857 615.237 513.967 617.117C513.967 633.484 514.078 649.851 514.078 666.328C513.967 669.535 513.857 672.853 513.967 676.06C514.078 678.382 513.305 679.599 510.764 679.378C508.886 679.267 506.898 678.935 505.131 679.488C501.265 680.594 501.044 678.604 500.933 675.618C500.713 672.632 501.486 669.535 500.16 666.55Z" fill="#E0B680"/>
<path d="M513.636 611.698C513.636 599.533 513.636 587.369 513.636 575.204C518.275 583.387 521.589 592.124 525.455 600.639C535.396 622.536 545.227 644.432 555.057 666.218C555.499 667.102 556.051 667.987 556.493 668.872C551.191 670.641 545.779 669.535 540.477 669.425C539.041 669.425 539.372 667.324 538.489 666.55C530.646 648.745 522.693 630.83 514.851 613.025C514.63 612.472 514.078 612.14 513.636 611.698Z" fill="#BB9365"/>
<path d="M347.729 666.107C351.484 659.914 354.025 653.058 357.007 646.422C364.298 630.608 371.256 614.684 378.436 598.87C382.302 604.067 384.732 610.039 387.273 616.011C382.965 625.411 378.657 634.921 374.46 644.432C371.367 651.51 367.722 658.366 365.292 665.775C364.187 667.987 362.53 668.982 359.99 668.761C356.676 668.54 353.362 668.651 350.049 668.761C348.06 668.761 347.066 668.319 347.729 666.107Z" fill="#BB9365"/>
<path d="M365.292 665.775C367.832 658.366 371.367 651.51 374.459 644.432C378.657 634.921 382.965 625.521 387.272 616.011C392.906 625.853 397.435 636.359 401.853 646.754C403.731 651.067 403.399 651.841 399.202 654.053C394.563 656.597 389.482 658.145 385.174 661.02C382.191 662.568 379.099 664.227 376.116 665.775C372.471 665.775 368.826 665.775 365.292 665.775Z" fill="#FEFEFE"/>
<path d="M513.636 611.698C514.078 612.14 514.63 612.472 514.851 613.025C522.804 630.83 530.646 648.745 538.489 666.55C537.605 667.766 536.169 667.434 535.064 667.434C527.995 667.324 520.815 667.877 513.746 666.55C513.746 650.182 513.636 633.815 513.636 617.338C513.746 615.458 513.636 613.578 513.636 611.698Z" fill="#FEFEFE"/>
<path d="M376.006 665.886C378.988 664.338 382.081 662.679 385.063 661.131C384.953 662.9 385.947 663.896 387.494 664.449C393.348 666.218 399.092 666.66 404.725 663.343C409.143 660.799 412.899 657.26 417.096 654.385C418.974 659.693 422.509 664.006 424.939 668.983C420.631 670.863 416.212 671.305 411.794 669.204C410.027 668.319 408.701 669.204 407.265 670.089C397.214 676.724 386.278 677.166 374.901 675.065C373.245 674.733 371.146 674.401 370.814 672.3C370.483 670.42 372.14 669.204 373.355 667.987C374.349 667.324 375.233 666.55 376.006 665.886Z" fill="#4B719E"/>
<path d="M425.049 668.982C422.619 664.006 418.974 659.693 417.207 654.385C417.538 653.39 417.759 652.505 418.09 651.51C419.084 652.173 419.416 653.39 419.858 654.385C424.165 665.001 433.665 668.54 443.495 671.747C445.263 672.3 447.582 672.632 449.018 670.641C450.565 668.651 448.908 666.992 448.024 665.444C445.263 660.467 441.176 656.486 437.641 652.173C437.862 651.952 438.194 651.62 438.414 651.399C444.048 655.491 448.797 660.578 453.547 665.665C455.977 669.093 457.855 672.632 457.303 677.055C456.971 680.262 455.314 682.032 452.111 682.253C449.239 682.474 446.367 682.032 443.716 680.705C437.752 677.829 432.008 674.622 427.258 669.867C426.706 669.425 426.154 668.761 425.049 668.982Z" fill="#4B719E"/>
<path d="M616.693 282.146C617.687 297.96 602.886 312.557 586.869 312.004C570.301 311.451 557.267 298.734 557.267 282.035C557.267 265.447 570.632 252.397 587.532 252.176C602.333 252.176 617.466 265.557 616.693 282.146ZM615.146 282.256C615.809 266.221 601.891 253.946 587.311 253.835C571.516 253.835 558.813 266.442 558.703 282.035C558.703 297.628 571.184 309.903 586.759 310.346C602.444 310.788 615.809 297.517 615.146 282.256Z" fill="#355E8D"/>
<path d="M253.398 457.207C253.398 439.623 253.508 422.15 253.508 404.567C254.503 405.009 254.834 406.004 255.276 406.889C263.891 423.698 272.507 440.397 281.123 457.207C271.955 457.207 262.676 457.207 253.398 457.207Z" fill="#FEFEFE"/>
<path d="M310.615 424.141C308.074 424.141 305.644 424.141 303.104 424.141C301.668 424.141 300.674 423.698 300.674 422.039C300.674 420.381 301.005 418.943 302.993 418.832C308.074 418.722 313.266 418.722 318.347 418.832C320.004 418.832 320.998 420.159 320.998 421.929C320.888 423.698 319.673 424.03 318.126 424.03C315.586 424.141 313.156 424.141 310.615 424.141Z" fill="#EEE9E9"/>
<path d="M519.048 442.167C502.038 442.167 485.138 442.167 468.127 442.167C465.918 442.167 463.599 441.945 464.151 445.374C464.04 445.927 464.04 446.479 464.593 446.811C464.593 447.585 464.593 448.249 464.593 449.023C463.93 449.576 463.82 450.129 464.482 450.682C464.482 451.566 464.482 452.451 464.482 453.336C463.709 453.889 463.709 454.552 464.482 455.105C464.482 455.769 464.482 456.543 464.482 457.206C457.413 457.206 450.454 457.206 443.385 457.206C443.495 448.138 443.937 450.018 436.095 449.797C435.101 449.797 434.106 449.686 433.112 449.686C433.112 446.148 433.002 442.719 433.112 439.181C433.223 436.969 432.45 436.195 430.13 436.084C425.27 435.863 420.41 436.527 415.66 437.632C413.12 428.564 410.8 419.385 411.131 409.764C411.242 406.999 412.125 404.345 412.899 401.802C415.439 393.287 418.09 384.882 420.631 376.367C420.852 375.482 420.741 374.376 420.852 373.381C421.514 372.164 422.288 370.837 422.95 369.621C429.909 377.583 438.083 384.44 445.594 391.96C447.582 393.95 449.129 393.95 451.338 392.402C463.267 384.218 475.307 376.145 487.237 368.073C488.231 368.847 489.335 369.621 490.329 370.395C489.888 370.616 489.335 370.948 489.667 371.39C490.219 372.275 490.882 371.39 491.544 371.28C497.067 379.574 500.823 388.863 505.02 397.821C505.904 399.701 506.677 401.691 507.45 403.682C512.642 416.178 517.612 428.675 519.048 442.167ZM488.673 372.607C478.952 376.809 475.418 397.489 478.842 405.562C478.51 393.508 478.621 381.675 488.673 372.607Z" fill="#FEFEFE"/>
<path d="M357.891 506.197C363.524 500.557 370.262 496.465 376.889 492.263C378.104 491.489 379.319 490.604 380.645 489.719C389.15 485.185 397.766 480.651 406.271 476.117C414.003 476.006 421.735 475.896 429.578 475.896C448.134 475.785 466.581 475.785 485.138 475.785C486.132 475.896 487.126 476.006 488.12 476.117C487.236 480.098 487.015 484.19 485.911 488.282C482.818 500.225 476.632 509.625 464.703 514.159C458.186 516.703 451.338 518.03 444.379 519.136C433.775 520.794 423.171 522.121 412.457 522.343C410.247 522.343 408.038 522.896 406.05 521.458C405.608 520.463 404.835 519.91 403.73 519.91C403.399 519.246 402.847 519.136 402.184 519.136C402.074 517.587 400.969 517.587 399.864 517.587C399.423 515.486 397.766 515.376 396.109 515.265C395.888 515.044 395.557 514.712 395.336 514.491C395.004 513.827 394.452 513.717 393.789 513.717C392.132 512.169 390.034 511.394 387.935 510.62C378.325 507.082 368.274 505.865 357.891 506.197Z" fill="#3D7DBD"/>
<path d="M406.161 476.117C397.656 480.651 389.04 485.185 380.535 489.719C379.872 485.185 379.651 480.651 379.761 476.117C388.598 476.007 397.324 476.007 406.161 476.117Z" fill="#84ADEA"/>
<path d="M335.026 483.526C327.515 483.526 319.894 483.526 312.382 483.526C312.382 481.093 312.272 478.55 312.272 476.117C320.004 476.117 327.736 476.117 335.468 476.117C335.358 478.55 335.137 480.983 335.026 483.526Z" fill="#BB9365"/>
<path d="M464.593 457.206C464.593 456.543 464.593 455.769 464.593 455.105C485.69 455.105 506.788 455.105 527.885 455.105C527.885 455.769 527.885 456.543 527.885 457.206C513.636 457.317 499.276 457.317 485.027 457.428C478.29 457.317 471.441 457.206 464.593 457.206Z" fill="#D6D6E1"/>
<path d="M436.095 363.649C443.495 360.11 447.03 354.138 446.809 345.844C446.699 343.301 446.809 340.868 446.919 338.324C452.332 341.642 458.849 341.421 462.163 337.661C456.971 340.204 452.001 338.656 446.919 337.329C440.955 332.574 437.089 326.602 435.211 319.082C434.769 317.534 433.112 316.207 432.45 314.658C431.124 311.562 429.025 308.244 433.333 305.59C434.438 304.927 433.775 303.489 433.996 302.383C434.99 294.31 437.199 286.68 443.385 280.929C445.925 278.607 448.576 276.174 452.553 276.616C453.768 278.828 455.977 280.266 457.523 282.146C461.058 286.459 464.482 290.882 465.476 296.522C464.593 296.522 463.709 296.522 462.936 296.633C461.831 296.743 460.395 296.743 460.506 298.181C460.616 299.84 462.163 299.729 463.378 299.619C464.593 299.508 465.808 299.397 467.023 299.287C467.685 300.503 468.459 301.83 467.796 303.379C467.354 303.379 466.802 303.379 466.36 303.268C463.378 302.604 462.715 303.71 463.819 306.364C464.04 306.917 464.372 307.47 464.593 308.023C462.163 308.134 459.512 307.36 457.523 309.461C452.884 308.908 448.245 308.466 443.716 307.913C443.385 306.033 446.699 304.706 445.263 303.379C444.048 302.051 441.618 303.6 439.74 303.821C439.519 303.821 439.408 304.153 438.967 304.595C441.286 304.706 440.955 306.586 441.286 307.913C440.403 308.576 439.519 309.129 438.746 309.903C437.862 310.788 437.972 311.562 439.408 311.783C440.734 314.437 443.164 313.884 445.373 313.995C446.699 313.995 447.914 312.557 449.239 313.884C449.129 315.101 449.902 315.986 450.785 315.764C451.78 315.543 450.675 314.658 450.565 313.995C450.786 313.774 451.117 313.553 451.338 313.221C451.559 313 451.89 312.668 452.111 312.447C452.774 312.115 452.884 311.562 452.884 310.899C453.216 310.899 453.547 310.899 453.878 310.899C454.983 311.23 456.198 311.451 457.303 311.783C459.843 314.437 465.255 314.658 467.686 312.336C468.901 311.12 468.68 310.235 467.244 309.461C466.691 309.129 466.139 308.687 465.587 308.355C467.465 307.802 466.25 304.042 469.342 304.706C470.557 312.778 472.325 320.741 471.772 329.035C471.772 329.256 471.772 329.588 471.662 329.809C469.453 332.463 465.476 333.901 465.035 337.55C464.372 343.743 464.924 350.047 467.465 355.908C468.569 358.451 469.895 361.216 473.208 361.769C466.36 370.727 458.076 378.357 450.565 386.762C449.018 388.421 448.576 386.983 447.914 385.877C443.937 378.468 439.961 371.058 436.095 363.649ZM453.437 317.866C453.216 317.644 452.884 317.313 452.663 317.091C452.663 316.981 452.553 316.87 452.553 316.87C452.553 316.87 452.442 316.87 452.332 316.87C452.442 316.981 452.553 317.091 452.663 317.202C452.884 317.423 453.216 317.755 453.657 318.087C453.657 317.976 453.547 317.976 453.437 317.866C453.437 317.976 453.436 318.087 453.547 318.087C453.547 318.087 453.657 318.087 453.768 318.197C453.768 318.197 453.768 318.087 453.437 317.866ZM435.984 299.729C440.071 299.729 443.495 299.729 446.809 299.729C447.914 299.729 448.908 299.287 449.018 298.07C449.129 296.854 448.024 296.301 447.03 296.301C443.274 296.411 439.519 296.522 435.984 299.729ZM450.344 325.164C453.326 326.381 456.308 326.823 459.07 324.722C456.198 325.275 453.326 325.938 450.344 325.164Z" fill="#FECBB5"/>
<path d="M436.095 363.649C440.071 371.058 443.937 378.468 447.914 385.877C448.466 386.983 449.018 388.531 450.565 386.762C458.076 378.468 466.36 370.727 473.209 361.769C474.203 361.769 475.086 361.658 476.081 361.658C480.388 362.986 484.807 364.091 487.458 368.183C475.528 376.256 463.488 384.329 451.559 392.512C449.35 394.061 447.803 394.061 445.815 392.07C438.304 384.55 430.13 377.804 423.171 369.731C426.264 365.197 431.345 364.865 436.095 363.649Z" fill="#EEE9E9"/>
<path d="M475.97 361.769C474.976 361.769 473.982 361.88 473.098 361.88C469.674 361.437 468.459 358.673 467.354 356.018C464.703 350.157 464.151 343.854 464.924 337.661C465.366 334.011 469.343 332.574 471.552 329.92C469.674 340.978 470.447 351.706 475.97 361.769Z" fill="#244D7D"/>
<path d="M491.765 354.802C487.789 350.047 486.905 344.186 486.574 338.324C486.021 328.593 487.236 318.861 487.899 309.129C488.783 295.195 486.463 281.814 478.952 269.649L479.063 269.539C481.935 270.313 482.597 273.188 483.481 275.179C488.672 286.569 489.998 298.513 489.114 311.009C488.231 323.063 486.353 335.228 489.556 347.282C490.219 349.826 491.876 352.037 491.765 354.802Z" fill="#244D7D"/>
<path d="M484.254 360.11C481.714 357.677 480.83 354.36 479.836 351.152C477.517 343.522 478.4 335.781 479.394 328.15C481.493 311.009 482.377 294.089 473.651 278.275C473.209 277.501 473.209 276.616 472.988 275.731L473.098 275.621C477.958 281.482 479.836 288.67 481.162 295.858C483.15 306.475 482.156 317.202 480.83 327.818C479.505 337.993 478.511 348.167 483.923 357.788C484.254 358.451 484.254 359.225 484.475 360L484.254 360.11Z" fill="#4B719E"/>
<path d="M467.465 303.379C468.127 301.83 467.465 300.614 466.691 299.287C467.575 299.176 468.459 299.066 469.342 298.955C473.319 307.47 474.755 316.317 472.877 325.717C472.656 326.934 472.435 328.15 471.441 329.035C471.883 320.852 470.226 312.779 469.011 304.706C469.895 302.715 467.906 304.042 467.465 303.379Z" fill="#BB9365"/>
<path d="M465.366 296.633C464.372 290.993 460.948 286.569 457.413 282.256C455.867 280.376 453.657 278.939 452.442 276.727C454.099 276.616 455.646 276.506 457.303 276.395C462.163 282.588 465.366 289.666 468.569 296.743C467.465 296.633 466.36 296.633 465.366 296.633Z" fill="#BB9365"/>
<path d="M493.312 356.24C496.957 360.221 500.712 364.312 503.916 367.851C501.927 367.63 494.085 359.889 493.201 356.461C493.201 356.35 493.312 356.24 493.312 356.24Z" fill="#244D7D"/>
<path d="M465.366 296.633C466.471 296.633 467.465 296.743 468.569 296.743C468.901 297.517 469.232 298.291 469.453 299.066C468.569 299.176 467.686 299.287 466.802 299.397C465.587 299.508 464.372 299.729 463.157 299.729C461.942 299.84 460.395 299.95 460.285 298.291C460.174 296.854 461.721 296.854 462.715 296.743C463.599 296.633 464.482 296.633 465.366 296.633Z" fill="#244D7D"/>
<path d="M507.671 370.505C511.095 372.164 513.194 374.929 514.961 378.136C512.31 375.814 509.107 374.044 507.561 370.616L507.671 370.505Z" fill="#244D7D"/>
<path d="M499.277 375.15C496.073 373.934 494.527 371.058 492.428 368.625C495.631 369.842 497.951 371.943 499.387 375.04L499.277 375.15Z" fill="#244D7D"/>
<path d="M514.63 397.931C514.299 398.373 513.967 398.926 513.636 399.369C513.415 395.166 511.537 391.296 510.543 387.315L510.653 387.204C513.636 390.079 513.967 394.061 514.63 397.931Z" fill="#244D7D"/>
<path d="M478.952 269.76C477.627 268.764 476.301 267.769 475.97 266L476.08 265.889C478.179 266.332 479.063 267.659 479.063 269.649C479.063 269.649 478.952 269.76 478.952 269.76Z" fill="#244D7D"/>
<path d="M508.996 384.992C507.229 384.661 506.346 383.665 506.014 382.007L506.125 381.896C507.781 382.228 508.776 383.223 509.107 384.992C509.107 384.882 508.996 384.992 508.996 384.992Z" fill="#244D7D"/>
<path d="M470.779 260.581C472.435 260.913 473.54 261.908 473.761 263.567L473.65 263.678C471.994 263.346 470.999 262.35 470.558 260.692C470.668 260.802 470.779 260.581 470.779 260.581Z" fill="#244D7D"/>
<path d="M518.054 382.007C517.171 381.896 516.398 381.564 516.177 380.569C516.066 380.127 516.398 379.795 516.839 379.905C517.834 380.127 518.054 381.011 518.054 382.007C518.054 382.007 518.165 381.896 518.054 382.007Z" fill="#244D7D"/>
<path d="M510.543 387.204C509.107 387.094 508.997 385.988 508.997 384.992L509.107 384.882C509.991 385.324 510.543 386.098 510.653 387.094L510.543 387.204Z" fill="#244D7D"/>
<path d="M491.766 371.39C491.103 371.501 490.55 372.385 489.888 371.501C489.556 371.058 490.109 370.727 490.55 370.505C491.103 370.616 491.545 370.837 491.766 371.39Z" fill="#EEE9E9"/>
<path d="M484.364 360C485.138 360.11 485.8 360.442 485.69 361.327C485.69 361.437 485.359 361.769 485.248 361.769C484.364 361.548 484.254 360.774 484.144 360.11C484.254 360.11 484.364 360 484.364 360Z" fill="#244D7D"/>
<path d="M471.552 273.409C472.436 273.852 472.988 274.626 473.098 275.621L472.988 275.732C471.552 275.621 471.441 274.515 471.441 273.52C471.441 273.52 471.552 273.409 471.552 273.409Z" fill="#244D7D"/>
<path d="M491.876 354.691C492.87 354.802 493.312 355.244 493.422 356.24L493.312 356.35C492.318 356.35 491.876 355.797 491.876 354.691C491.876 354.691 491.765 354.802 491.876 354.691Z" fill="#244D7D"/>
<path d="M507.561 370.727C507.229 370.616 506.898 370.505 506.566 370.284C506.677 370.174 506.787 369.953 506.787 370.063C507.119 370.284 507.34 370.395 507.671 370.616C507.671 370.505 507.561 370.727 507.561 370.727Z" fill="#244D7D"/>
<path d="M488.894 365.308C489.225 365.418 489.556 365.529 489.888 365.75C489.777 365.861 489.667 366.082 489.667 365.971C489.335 365.75 489.115 365.64 488.783 365.418C488.783 365.418 488.894 365.308 488.894 365.308Z" fill="#244D7D"/>
<path d="M506.014 382.007C505.793 381.675 505.683 381.454 505.462 381.122C505.462 381.122 505.683 381.011 505.683 380.901C505.793 381.232 505.904 381.564 506.125 381.896C506.125 381.785 506.014 382.007 506.014 382.007Z" fill="#244D7D"/>
<path d="M499.387 375.04C499.718 375.15 500.05 375.261 500.381 375.482C500.271 375.592 500.16 375.814 500.16 375.703C499.829 375.482 499.608 375.371 499.276 375.15C499.276 375.15 499.387 375.04 499.387 375.04Z" fill="#244D7D"/>
<path d="M488.12 364.534C488.341 364.755 488.672 364.976 488.893 365.308L488.783 365.418C488.452 365.087 488.231 364.865 488.12 364.534Z" fill="#244D7D"/>
<path d="M487.237 363.871C487.126 363.76 487.016 363.649 486.905 363.428C487.126 363.539 487.237 363.649 487.237 363.871C487.237 363.871 487.347 363.76 487.237 363.871Z" fill="#244D7D"/>
<path d="M488.01 364.644C487.789 364.423 487.568 364.091 487.237 363.87L487.347 363.76C487.568 364.091 487.789 364.312 488.01 364.644C488.01 364.644 488.12 364.534 488.01 364.644Z" fill="#244D7D"/>
<path d="M473.871 263.567C474.092 263.788 474.313 264.12 474.645 264.341L474.534 264.452C474.313 264.23 473.982 264.009 473.761 263.677C473.65 263.788 473.871 263.567 473.871 263.567Z" fill="#244D7D"/>
<path d="M475.97 266C475.749 265.779 475.528 265.447 475.197 265.226L475.307 265.115C475.528 265.336 475.86 265.557 476.08 265.889C476.08 265.889 475.97 266 475.97 266Z" fill="#244D7D"/>
<path d="M475.197 265.226C474.976 265.004 474.755 264.673 474.423 264.451L474.534 264.341C474.865 264.673 475.086 264.894 475.197 265.226C475.197 265.226 475.307 265.115 475.197 265.226Z" fill="#244D7D"/>
<path d="M406.05 521.237C408.039 522.674 410.137 522.122 412.457 522.122C423.171 521.9 433.775 520.684 444.379 518.915C451.228 517.809 458.186 516.482 464.703 513.938C476.633 509.404 482.818 500.004 485.911 488.06C487.016 484.079 487.126 479.988 488.12 475.896C489.114 475.896 490.109 475.896 491.103 475.896C491.213 478.439 491.324 480.983 491.434 483.526C491.765 490.493 492.097 497.35 492.428 504.317C492.539 505.644 492.428 507.082 492.428 508.409C486.132 517.256 477.958 523.227 467.133 525.329C463.599 525.992 459.954 526.103 456.309 526.766C441.065 529.42 425.822 532.185 410.469 534.95C405.719 529.863 399.313 526.877 393.679 522.785C396.772 522.785 399.865 522.785 403.068 522.674C404.394 522.674 405.83 523.117 406.05 521.237Z" fill="#3D628C"/>
<path d="M513.857 531.853C513.746 515.818 513.746 499.672 513.636 483.637C513.636 481.093 513.746 478.55 513.746 476.117C518.164 476.117 522.583 476.117 527.001 476.117C526.007 484.632 525.676 493.258 524.129 501.773C522.362 511.505 520.374 521.126 515.403 529.863C514.961 530.526 514.298 531.19 513.857 531.853Z" fill="#4B719E"/>
<path d="M513.746 476.117C513.746 478.66 513.636 481.204 513.636 483.637C506.235 483.637 498.724 483.637 491.324 483.637C491.213 481.093 491.103 478.55 490.992 476.006C498.614 476.117 506.125 476.117 513.746 476.117Z" fill="#BB9365"/>
<path d="M527.885 457.096C527.885 456.432 527.885 455.658 527.885 454.995C532.414 454.995 536.942 454.884 541.361 454.884C541.581 455.658 541.913 456.432 542.134 457.096C537.495 457.096 532.745 457.096 527.885 457.096Z" fill="#355E8D"/>
<path d="M150.672 554.635C148.021 553.418 145.923 551.538 144.045 548.11C147.58 549.769 149.126 552.202 150.672 554.635Z" fill="#355E8D"/>
<path d="M149.9 532.849C147.58 531.743 145.702 530.084 144.156 527.098C147.249 528.536 148.795 530.416 149.9 532.849Z" fill="#355E8D"/>
<path d="M137.859 519.799C140.289 520.684 141.394 522.453 142.83 524.223C140.289 524.002 139.295 523.117 137.859 519.799Z" fill="#355E8D"/>
<path d="M148.243 593.009C149.9 593.119 150.562 594.004 150.894 595.552C149.237 595.442 148.574 594.557 148.243 593.009Z" fill="#355E8D"/>
<path d="M153.324 599.533C152.44 598.98 151.446 598.427 151.335 596.658C153.213 596.99 153.434 598.206 153.324 599.533Z" fill="#355E8D"/>
<path d="M143.603 546.23C143.051 546.34 142.72 546.672 142.499 546.562C141.946 546.34 141.505 545.898 141.726 545.235C141.836 545.124 142.388 545.013 142.609 545.124C142.941 545.235 143.162 545.677 143.603 546.23Z" fill="#355E8D"/>
<path d="M146.917 591.572C146.807 591.461 146.807 591.461 146.696 591.35C146.807 591.239 146.917 591.239 147.028 591.128C147.028 591.239 147.138 591.35 147.028 591.461C147.138 591.461 147.028 591.461 146.917 591.572Z" fill="#355E8D"/>
<path d="M446.809 337.329C451.78 338.656 456.861 340.094 462.052 337.661C458.739 341.421 452.222 341.642 446.809 338.324C446.809 337.993 446.809 337.661 446.809 337.329Z" fill="#E0B680"/>
<path d="M222.47 401.138C222.47 406.225 222.359 411.423 222.47 416.51C222.58 419.275 221.365 420.27 218.604 420.27C215.953 420.27 214.296 419.496 214.296 416.51C214.296 406.336 214.296 396.162 214.296 385.988C214.296 383.002 215.953 382.117 218.604 382.117C221.255 382.117 222.47 383.444 222.359 386.098C222.47 391.075 222.47 396.051 222.47 401.138Z" fill="#FEFEFE"/>
<path d="M215.18 443.715C215.401 443.493 215.621 443.272 215.732 443.051C220.923 441.282 222.801 443.051 221.697 448.912C221.476 449.133 221.144 449.465 220.923 449.686C219.156 449.908 217.389 449.576 215.732 448.912C214.738 447.253 214.848 445.484 215.18 443.715Z" fill="#244D7D"/>
<path d="M221.697 448.912C222.801 443.051 220.923 441.171 215.732 443.051C216.947 439.955 219.156 440.287 221.365 441.724C223.795 443.272 223.906 446.479 221.697 448.912Z" fill="#48658E"/>
<path d="M215.18 443.715C214.848 445.484 214.738 447.254 215.842 448.913C212.97 447.475 212.418 445.816 215.18 443.715Z" fill="#48658E"/>
<path d="M215.732 448.912C217.389 449.576 219.156 449.797 220.923 449.686C219.156 450.461 217.168 451.677 215.732 448.912Z" fill="#48658E"/>
<path d="M221.034 449.686C221.255 449.465 221.586 449.134 221.807 448.912C221.476 449.134 221.255 449.465 221.034 449.686Z" fill="#48658E"/>
<path d="M245.776 401.581C245.776 406.557 245.776 411.644 245.776 416.621C245.776 419.496 244.34 420.27 241.8 420.27C239.259 420.27 237.713 419.606 237.713 416.731C237.713 406.447 237.823 396.162 237.713 385.877C237.713 383.002 239.149 382.228 241.689 382.228C244.23 382.228 245.776 382.891 245.776 385.767C245.666 391.075 245.776 396.383 245.776 401.581Z" fill="#FEFEFE"/>
<path d="M245.114 445.705C245.334 448.138 243.899 449.355 241.91 449.465C239.922 449.576 238.376 448.581 238.265 446.148C238.265 443.825 239.149 442.277 241.579 442.167C244.009 442.167 244.893 443.604 245.114 445.705Z" fill="#3D628C"/>
<path d="M319.894 311.673C333.924 311.673 345.299 311.425 345.299 311.12C345.299 310.814 333.924 310.567 319.894 310.567C305.863 310.567 294.488 310.814 294.488 311.12C294.488 311.425 305.863 311.673 319.894 311.673Z" fill="#244D7D"/>
<path d="M337.898 322.842C328.62 322.842 319.452 322.842 310.173 322.842C310.173 322.621 310.173 322.4 310.173 322.178C319.452 322.178 328.62 322.178 337.898 322.178C337.898 322.4 337.898 322.621 337.898 322.842Z" fill="#4B719E"/>
<path d="M310.615 316.539C319.452 316.539 328.178 316.539 337.015 316.539C337.015 316.649 337.015 316.871 337.015 316.982C328.288 316.982 319.452 316.982 310.726 316.982C310.615 316.871 310.615 316.649 310.615 316.539Z" fill="#244D7D"/>
<path d="M541.471 454.884C536.943 454.884 532.414 454.995 527.996 454.995C506.898 454.995 485.801 454.995 464.703 454.995C463.93 454.442 463.93 453.778 464.703 453.225C485.801 453.225 506.898 453.225 527.996 453.225C532.303 453.225 536.611 453.225 540.919 453.225C541.03 453.889 541.251 454.331 541.471 454.884Z" fill="#244D7D"/>
<path d="M464.593 446.811C464.041 446.479 464.041 445.926 464.151 445.374C483.812 445.374 503.474 445.263 523.135 445.263C524.792 445.263 526.339 445.152 527.995 445.152C531.972 445.152 536.059 445.152 540.035 445.263C540.035 445.705 540.146 446.258 540.146 446.701C536.059 446.701 531.972 446.811 527.885 446.811C506.788 446.811 485.69 446.811 464.593 446.811Z" fill="#244D7D"/>
<path d="M464.593 450.571C463.82 450.018 464.041 449.465 464.703 448.912C465.256 449.134 465.808 449.465 466.36 449.465C486.795 449.465 507.34 449.355 527.774 449.355C532.082 449.465 536.39 449.465 540.698 449.576C540.698 449.797 540.698 450.018 540.698 450.239C536.39 450.35 532.082 450.35 527.774 450.461C506.788 450.571 485.69 450.571 464.593 450.571Z" fill="#244D7D"/>
<path d="M527.885 450.571C532.193 450.461 536.5 450.461 540.808 450.35C540.808 451.345 540.919 452.341 540.919 453.225C536.611 453.225 532.303 453.225 527.995 453.225C527.885 452.451 527.885 451.567 527.885 450.571Z" fill="#355E8D"/>
<path d="M540.698 449.687C536.39 449.576 532.082 449.576 527.774 449.465C527.774 448.581 527.774 447.696 527.885 446.811C531.972 446.811 536.059 446.701 540.146 446.701C540.919 447.475 540.588 448.691 540.698 449.687Z" fill="#355E8D"/>
<path d="M566.324 442.277C566.324 439.402 566.324 436.637 566.324 433.762C570.743 435.31 571.847 437.964 570.08 442.498C568.754 442.388 567.539 442.277 566.324 442.277Z" fill="#FEFEFE"/>
<path d="M570.632 449.465C577.701 449.465 584.771 449.465 591.84 449.465C591.84 449.797 591.84 450.239 591.84 450.571C584.55 449.908 577.259 451.566 569.969 449.687C570.19 449.576 570.411 449.576 570.632 449.465Z" fill="#244D7D"/>
<path d="M566.324 442.277C567.539 442.277 568.865 442.388 570.08 442.388C569.638 444.378 568.644 445.926 566.324 447.364C566.324 445.374 566.324 443.825 566.324 442.277Z" fill="#355E8D"/>
<path d="M322.103 356.019C313.929 356.019 305.755 356.019 297.581 356.019C297.581 355.797 297.581 355.466 297.581 355.244C305.755 355.244 313.929 355.244 322.103 355.244C322.103 355.466 322.103 355.687 322.103 356.019Z" fill="#355E8D"/>
<path d="M322.103 367.298C315.917 367.298 309.732 367.298 303.546 367.298C309.732 365.64 315.917 366.303 322.103 366.082C322.103 366.524 322.103 366.856 322.103 367.298Z" fill="#355E8D"/>
<path d="M303.877 360.884C309.842 360.884 315.806 360.884 321.661 360.884C321.661 360.995 321.661 361.217 321.661 361.328C315.696 361.328 309.731 361.328 303.767 361.328C303.877 361.217 303.877 361.106 303.877 360.884Z" fill="#355E8D"/>
<path d="M415.881 437.632C420.631 436.526 425.38 435.863 430.351 436.084C432.671 436.195 433.444 436.969 433.333 439.181C433.223 442.719 433.333 446.148 433.333 449.686C422.067 449.797 410.8 449.908 399.423 450.018C399.975 447.364 403.178 446.922 403.952 444.489C406.271 443.825 408.039 442.166 409.916 440.729C411.794 439.623 413.782 438.628 415.881 437.632Z" fill="#FECBB5"/>
<path d="M270.85 322.068C262.676 322.068 254.502 322.068 246.329 322.068C246.329 321.847 246.329 321.515 246.329 321.294C254.502 321.294 262.676 321.294 270.85 321.294C270.85 321.515 270.85 321.847 270.85 322.068Z" fill="#3D628C"/>
<path d="M270.961 333.458C264.554 333.458 258.037 333.458 251.631 333.458C258.037 331.91 264.444 332.353 270.961 332.242C270.961 332.574 270.961 333.016 270.961 333.458Z" fill="#3D628C"/>
<path d="M252.404 327.155C258.369 327.155 264.333 327.155 270.188 327.155C270.188 327.376 270.188 327.708 270.188 327.929C264.223 327.929 258.258 327.929 252.404 327.929C252.404 327.708 252.404 327.487 252.404 327.155Z" fill="#3D628C"/>
<path d="M160.282 576.31C160.393 573.545 162.27 572.439 163.154 569.785C163.375 573.103 163.375 573.103 160.282 576.31Z" fill="#355E8D"/>
<path d="M403.841 444.378C403.068 446.811 399.865 447.254 399.312 449.908C396.882 450.571 394.342 450.129 391.912 450.239C390.807 450.239 389.923 449.797 389.482 448.802C388.046 445.484 385.505 442.719 384.732 439.181C390.697 435.974 395.778 438.296 400.748 441.724C401.853 442.498 402.847 443.494 403.841 444.378Z" fill="#E0B680"/>
<path d="M403.952 455.658C402.847 455.658 401.742 455.658 400.527 455.658C399.312 455.658 398.539 455.216 398.65 453.889C398.65 452.672 399.423 452.009 400.527 451.898C402.626 451.788 404.835 451.788 406.934 451.898C408.038 451.898 408.922 452.451 408.922 453.668C408.922 454.884 408.149 455.437 406.934 455.548C405.94 455.769 404.946 455.658 403.952 455.658Z" fill="#244D7D"/>
<path d="M420.189 455.769C418.753 455.216 415.329 457.096 415.439 453.889C415.55 450.903 418.753 452.451 420.631 452.119C420.852 452.119 421.183 452.119 421.404 452.119C422.95 452.341 425.491 451.456 425.38 453.999C425.27 456.543 422.84 455.548 421.293 455.769C420.962 455.769 420.741 455.769 420.189 455.769Z" fill="#244D7D"/>
<path d="M393.79 522.785C399.312 526.877 405.719 529.752 410.579 534.95C411.573 537.604 412.567 540.258 413.672 542.912C414.556 545.456 414.556 548.22 416.433 550.432C418.311 563.26 420.189 575.978 422.288 588.806C424.828 605.173 427.59 621.43 430.241 637.797C430.682 640.672 431.235 643.437 431.787 646.201C432.008 646.423 432.229 646.754 432.56 646.975C432.781 647.197 433.112 647.528 433.333 647.75C433.554 647.971 433.886 648.303 434.107 648.524C434.99 650.072 436.316 651.288 437.752 652.284C441.397 656.597 445.484 660.578 448.135 665.554C449.018 667.103 450.565 668.761 449.129 670.752C447.693 672.742 445.373 672.411 443.606 671.858C433.886 668.651 424.386 665.112 419.968 654.495C419.526 653.5 419.305 652.284 418.201 651.62C417.317 649.187 416.544 646.644 415.66 644.211C409.475 628.286 403.841 612.14 398.318 595.884C389.482 570.117 380.866 544.35 372.803 518.251C372.361 516.924 372.14 515.818 373.576 514.933C380.866 515.818 387.273 519.467 393.79 522.785Z" fill="#FECBB5"/>
<path d="M413.672 542.912C412.678 540.258 411.684 537.604 410.579 534.95C425.822 532.185 441.065 529.42 456.419 526.766C459.954 526.103 463.599 525.992 467.244 525.329C477.958 523.227 486.242 517.366 492.539 508.409C493.091 519.578 493.643 530.747 494.195 542.027C490.882 542.359 487.458 542.691 484.144 543.023C462.605 544.35 441.176 543.686 419.637 543.023C417.538 543.023 415.55 543.023 413.672 542.912Z" fill="#4B719E"/>
<path d="M483.923 543.023C487.237 542.691 490.661 542.359 493.975 542.027C495.631 548.884 494.085 555.961 495.41 562.818C495.742 564.366 496.073 566.246 494.858 567.794C491.103 559.721 487.237 551.538 483.923 543.023Z" fill="#BB9365"/>
<path d="M413.672 542.912C415.66 543.023 417.538 543.023 419.526 543.133C418.532 545.566 417.427 547.999 416.433 550.432C414.556 548.22 414.445 545.456 413.672 542.912Z" fill="#BB9365"/>
<path d="M437.641 652.284C436.205 651.289 434.88 650.072 433.996 648.524C436.205 648.413 437.31 650.072 438.525 651.51C438.083 651.731 437.862 651.952 437.641 652.284Z" fill="#48658E"/>
<path d="M432.449 646.976C432.229 646.754 432.008 646.423 431.676 646.201C431.897 646.533 432.229 646.754 432.449 646.976Z" fill="#48658E"/>
<path d="M433.885 648.524C433.665 648.302 433.333 647.971 433.112 647.75C433.665 647.75 433.885 647.971 433.885 648.524Z" fill="#48658E"/>
<path d="M433.223 647.75C433.002 647.528 432.671 647.197 432.45 646.976C432.671 647.197 432.892 647.418 433.223 647.75Z" fill="#48658E"/>
<path d="M373.355 514.933C372.03 515.818 372.25 516.924 372.582 518.251C380.645 544.239 389.261 570.117 398.098 595.884C403.62 612.03 409.364 628.176 415.439 644.211C416.433 646.644 417.207 649.187 417.98 651.62C417.648 652.616 417.428 653.5 417.096 654.496C412.899 657.371 409.143 660.799 404.725 663.453C399.092 666.771 393.348 666.328 387.494 664.559C385.837 664.117 384.953 663.011 385.064 661.241C389.482 658.366 394.563 656.818 399.092 654.274C403.289 651.952 403.62 651.288 401.743 646.976C397.324 636.58 392.796 626.074 387.162 616.232C384.622 610.26 382.192 604.399 378.326 599.091C377.773 595.884 376.116 593.009 374.791 590.133C366.065 572.218 357.449 554.413 351.374 535.392C349.496 529.421 347.177 523.338 348.833 516.813C349.054 515.929 349.496 515.155 349.828 514.381C357.67 513.385 365.623 512.832 373.355 514.933Z" fill="#FFDED2"/>
<path d="M373.355 514.933C365.623 512.832 357.78 513.385 349.938 514.159C351.816 511.726 353.804 509.404 356.345 507.524C365.954 507.303 375.454 507.635 384.732 510.51C387.935 511.505 390.586 513.828 394.231 513.606C394.563 514.27 395.115 514.381 395.778 514.381C395.999 514.602 396.33 514.933 396.551 515.155C397.324 516.703 398.76 517.145 400.307 517.477C400.748 518.472 401.522 518.915 402.626 519.025C402.958 519.689 403.51 519.799 404.173 519.799C404.283 521.348 405.388 521.348 406.492 521.348C406.271 523.228 404.835 522.785 403.62 522.896C400.527 523.006 397.435 523.006 394.231 523.006C387.273 519.468 380.866 515.818 373.355 514.933Z" fill="#3D7DBD"/>
<path d="M394.01 513.717C390.476 513.938 387.714 511.616 384.511 510.621C375.233 507.745 365.733 507.414 356.124 507.635C356.455 506.971 357.007 506.418 357.78 506.197C368.163 505.865 378.326 507.082 388.046 510.731C390.255 511.395 392.354 512.169 394.01 513.717Z" fill="#3D628C"/>
<path d="M615.146 282.256C615.699 297.517 602.444 310.788 586.759 310.456C571.184 310.124 558.703 297.738 558.703 282.145C558.703 266.553 571.516 253.835 587.311 253.946C601.892 253.946 615.92 266.331 615.146 282.256ZM602.333 279.934C601.671 278.164 600.235 278.607 599.02 279.049C591.509 281.703 584.881 281.04 579.579 274.515C579.248 274.183 578.695 273.962 578.364 273.741C577.591 273.188 576.597 272.193 575.824 273.298C574.829 274.515 576.155 275.4 576.928 276.063C579.8 278.607 583.224 280.487 584.992 284.025C585.433 285.021 586.759 285.021 587.753 284.689C591.619 282.92 595.927 282.698 600.014 281.814C600.897 281.482 601.892 281.15 602.333 279.934Z" fill="#84ADEA"/>
<path d="M527.885 450.571C527.885 451.456 527.885 452.451 527.995 453.336C506.898 453.336 485.801 453.336 464.703 453.336C464.703 452.451 464.703 451.567 464.703 450.682C485.69 450.571 506.787 450.571 527.885 450.571Z" fill="#D6D6E1"/>
<path d="M527.885 446.811C527.885 447.696 527.885 448.581 527.774 449.465C507.34 449.465 486.795 449.576 466.36 449.576C465.808 449.576 465.255 449.134 464.703 449.023C464.703 448.249 464.703 447.585 464.703 446.811C485.69 446.811 506.787 446.811 527.885 446.811Z" fill="#D6D6E1"/>
<path d="M488.673 372.607C478.621 381.564 478.51 393.508 478.842 405.562C475.418 397.489 478.952 376.92 488.673 372.607Z" fill="#EEE9E9"/>
<path d="M400.086 517.477C398.539 517.145 397.103 516.703 396.33 515.155C397.876 515.265 399.644 515.376 400.086 517.477Z" fill="#3D628C"/>
<path d="M402.295 519.025C401.19 519.025 400.417 518.472 399.975 517.477C401.19 517.477 402.184 517.477 402.295 519.025Z" fill="#3D628C"/>
<path d="M406.051 521.237C404.946 521.237 403.841 521.237 403.731 519.689C404.836 519.689 405.609 520.242 406.051 521.237Z" fill="#3D628C"/>
<path d="M395.557 514.491C394.894 514.491 394.342 514.38 394.01 513.717C394.673 513.717 395.225 513.827 395.557 514.491Z" fill="#3D628C"/>
<path d="M403.841 519.689C403.179 519.689 402.626 519.578 402.295 518.915C402.958 518.915 403.51 519.136 403.841 519.689Z" fill="#3D628C"/>
<path d="M396.33 515.265C396.109 515.044 395.778 514.712 395.557 514.491C395.778 514.712 395.998 514.933 396.33 515.265Z" fill="#3D628C"/>
<path d="M443.385 308.134C448.024 308.687 452.663 309.129 457.192 309.682L457.302 309.793C457.302 310.567 457.302 311.23 457.302 312.004L457.192 312.115C456.087 311.783 454.872 311.562 453.768 311.23C453.436 311.009 453.105 310.788 452.774 310.567C452.442 310.788 452.221 311.009 451.89 311.23C450.454 311.23 450.344 312.336 450.344 313.442C450.344 313.774 450.344 313.995 450.454 314.327C450.012 314.327 449.57 314.216 449.018 314.216C447.693 313 446.478 314.437 445.152 314.327C442.943 314.216 440.403 314.658 439.187 312.115C441.838 312.447 444.489 313.442 447.251 312.557C447.803 312.336 448.355 311.894 448.576 311.451C448.687 311.23 448.355 310.567 448.024 310.235C446.257 308.797 440.623 310.014 439.187 312.115C437.752 312.004 437.641 311.23 438.525 310.235C439.298 309.461 440.182 308.908 441.065 308.244C441.728 308.576 442.501 308.466 443.385 308.134Z" fill="#EEE9E9"/>
<path d="M435.984 299.729C439.629 296.522 443.275 296.301 447.03 296.301C448.024 296.301 449.129 296.854 449.018 298.07C448.908 299.287 447.914 299.729 446.809 299.729C443.495 299.84 440.071 299.729 435.984 299.729Z" fill="#244D7D"/>
<path d="M443.385 308.134C442.612 308.465 441.838 308.687 441.065 308.134C440.734 306.696 441.065 304.927 438.746 304.816C439.187 304.374 439.298 304.042 439.519 304.042C441.397 303.821 443.827 302.272 445.042 303.6C446.257 304.927 443.054 306.143 443.385 308.134Z" fill="#3D628C"/>
<path d="M467.465 303.379C467.907 303.931 469.895 302.715 469.122 304.706C466.029 304.042 467.244 307.802 465.366 308.355C465.035 308.244 464.593 308.134 464.262 308.023C464.041 307.47 463.709 306.917 463.488 306.364C462.384 303.71 463.047 302.604 466.029 303.268C466.471 303.489 467.023 303.379 467.465 303.379Z" fill="#3D628C"/>
<path d="M467.023 309.571C468.459 310.345 468.68 311.23 467.464 312.447C465.034 314.769 459.733 314.548 457.082 311.894L457.192 311.783C459.18 312.557 461.279 312.778 463.488 312.557C465.366 312.447 467.133 312.225 467.023 309.571Z" fill="#EEE9E9"/>
<path d="M464.261 308.134C464.593 308.244 465.034 308.355 465.366 308.466C465.918 308.797 466.47 309.24 467.023 309.572L466.912 309.682C463.709 309.682 460.506 309.682 457.192 309.682L457.082 309.572C459.18 307.47 461.831 308.244 464.261 308.134Z" fill="#EEE9E9"/>
<path d="M450.344 325.164C453.326 325.828 456.198 325.275 459.07 324.722C456.198 326.823 453.326 326.381 450.344 325.164Z" fill="#E0B680"/>
<path d="M449.018 313.995C449.46 313.995 449.902 314.106 450.454 314.106C450.454 314.659 451.669 315.543 450.675 315.875C449.681 316.096 448.908 315.101 449.018 313.995Z" fill="#E0B680"/>
<path d="M452.663 311.12C452.663 311.783 452.553 312.336 451.89 312.668C451.89 312.115 451.89 311.673 451.89 311.12C452.221 311.12 452.442 311.12 452.663 311.12Z" fill="#E0B680"/>
<path d="M452.663 317.091C452.553 316.981 452.442 316.87 452.332 316.76C452.442 316.76 452.442 316.76 452.553 316.76C452.663 316.981 452.663 317.091 452.663 317.091Z" fill="#E0B680"/>
<path d="M450.454 314.105C450.454 313.774 450.454 313.552 450.344 313.221C450.675 313.221 450.896 313.331 451.227 313.331C450.896 313.663 450.675 313.884 450.454 314.105Z" fill="#E0B680"/>
<path d="M452.001 312.668C451.78 312.889 451.448 313.221 451.228 313.442C451.448 313.11 451.669 312.889 452.001 312.668C452.001 312.668 451.89 312.668 452.001 312.668Z" fill="#E0B680"/>
<path d="M452.774 310.345C453.105 310.567 453.436 310.788 453.768 311.009C453.436 311.009 453.105 311.009 452.774 311.009C452.663 310.898 452.663 310.677 452.774 310.345Z" fill="#E0B680"/>
<path d="M453.657 317.976C453.657 318.087 453.657 318.087 453.657 318.197C453.547 318.197 453.547 318.197 453.437 318.087C453.326 317.976 453.326 317.865 453.326 317.865C453.547 317.976 453.657 317.976 453.657 317.976Z" fill="#E0B680"/>
<path d="M452.664 317.091C452.884 317.312 453.216 317.644 453.437 317.865C453.216 317.644 452.995 317.423 452.664 317.091Z" fill="#E0B680"/>
<path d="M602.333 279.934C601.892 281.261 600.898 281.482 599.903 281.703C595.816 282.588 591.509 282.809 587.643 284.579C586.649 285.021 585.434 284.91 584.881 283.915C583.114 280.266 579.69 278.386 576.818 275.953C576.045 275.289 574.83 274.404 575.713 273.188C576.597 272.082 577.481 273.077 578.254 273.63C578.696 273.962 579.248 274.073 579.469 274.404C584.881 280.819 591.509 281.593 598.909 278.939C600.124 278.607 601.671 278.164 602.333 279.934Z" fill="#355E8D"/>
<path d="M457.192 309.682C460.396 309.682 463.599 309.682 466.913 309.682C467.134 312.226 465.366 312.447 463.488 312.668C461.39 312.889 459.291 312.668 457.192 311.894C457.303 311.12 457.303 310.346 457.192 309.682Z" fill="#FECBB5"/>
<path d="M439.188 311.894C440.623 309.793 446.146 308.687 448.024 310.014C448.355 310.235 448.687 311.009 448.576 311.23C448.245 311.673 447.693 312.115 447.251 312.336C444.489 313.221 441.838 312.226 439.188 311.894Z" fill="#FECBB5"/>
<path d="M451.89 312.668C451.669 312.889 451.338 313.221 451.117 313.442C450.786 313.442 450.565 313.331 450.233 313.331C450.233 312.226 450.344 311.23 451.78 311.12C451.89 311.562 451.89 312.115 451.89 312.668Z" fill="#FECBB5"/>
<path d="M452.774 310.345C452.774 310.567 452.663 310.788 452.663 311.12C452.442 311.12 452.111 311.12 451.89 311.12C452.222 310.898 452.442 310.677 452.774 310.345Z" fill="#FECBB5"/>
</svg>
