<?xml version="1.0" encoding="utf-8"?>
<svg class="ionicon" viewBox="0 0 512 512" xmlns="http://www.w3.org/2000/svg" xmlns:bx="https://boxy-svg.com">
  <title>Logo Youtube</title>
  <rect x="6.472" y="10.067" width="533.573" height="494.742" style="stroke: rgb(0, 0, 0); fill: rgb(255, 14, 14); visibility: hidden;"/>
  <path d="M 490.675 166.169 C 490.675 124.54 460.055 91.051 422.218 91.051 C 370.968 88.655 318.7 87.73 265.285 87.73 L 248.633 87.73 C 195.348 87.73 142.987 88.655 91.737 91.06 C 53.993 91.06 23.372 124.734 23.372 166.363 C 21.06 199.287 20.079 232.221 20.135 265.154 C 20.042 298.088 21.09 331.052 23.28 364.047 C 23.28 405.676 53.901 439.442 91.644 439.442 C 145.485 441.94 200.713 443.05 256.867 442.958 C 313.112 443.143 368.186 441.971 422.089 439.442 C 459.925 439.442 490.546 405.676 490.546 364.047 C 492.766 331.021 493.784 298.088 493.691 265.062 C 493.901 232.128 492.895 199.164 490.675 166.169 Z M 211.629 355.906 L 211.629 174.125 L 345.768 264.969 L 211.629 355.906 Z" style="stroke-miterlimit: 7; fill-rule: evenodd; paint-order: stroke; fill: rgba(255, 255, 255, 0); stroke: rgb(255, 255, 255); stroke-linejoin: round; stroke-width: 25px; stroke-linecap: square;"/>
  <path d="M 268.885 133.055 L 356.7 266.11 L 181.07 266.11 L 268.885 133.055 Z" style="fill: rgb(255, 255, 255);" transform="matrix(-0.001181, 0.999999, -0.999999, -0.001181, 479.212433, -3.213783)" bx:shape="triangle 181.07 133.055 175.63 133.055 0.5 0 1@1eafe172"/>
</svg>